<svg width="353" height="157" viewBox="0 0 353 157" fill="none" xmlns="http://www.w3.org/2000/svg">
<path fill-rule="evenodd" clip-rule="evenodd" d="M-99.2502 112.441C-144.919 97.2806 -156.531 161.225 -91.1515 136.622C-79.6954 148.592 -65.2805 150.004 -47.6755 140.023C-32.1002 146.092 -19.6552 158.051 -4.56638 146.921C11.3638 156.049 26.1416 157.58 39.4519 149.394C51.3627 157.947 65.1037 157.444 78.3423 148.417C89.1764 156.452 99.8031 154.972 110.306 147.986C130.096 160.1 148.894 160.447 166.172 142.826C175.06 145.849 182.692 143.955 188.043 133.136C218.687 157.831 246.931 161.021 272.531 140.442C279.625 149.003 288.409 146.57 297.417 142.691C308.211 147.244 317.869 147.2 326.546 139.987C364.794 144.832 357.593 105.818 324.632 116.76C317.965 99.0591 304.722 99.5934 288.413 108.649C287.703 83.5277 276.965 74.9824 257.374 81.0674C251.919 49.7174 222.523 47.289 206.904 63.3907C194.312 48.8761 181.699 41.2679 167.125 56.0297C179.669 -9.78045 125.216 -10.2669 109.983 17.0436C53.6794 -6.43093 19.6299 17.3587 24.8735 63.7814C3.46849 48.6528 -11.6044 55.2282 -23.0446 74.2487C-50.1398 66.4052 -64.0962 80.7803 -70.5958 100.857C-88.0094 92.9462 -94.517 101.049 -99.2502 112.441Z" fill="white"/>
<mask id="mask0_106_89" style="mask-type:luminance" maskUnits="userSpaceOnUse" x="-137" y="102" width="490" height="55">
<path d="M-137 102.133H352.529V156.782H-137V102.133Z" fill="white"/>
</mask>
<g mask="url(#mask0_106_89)">
<mask id="mask1_106_89" style="mask-type:luminance" maskUnits="userSpaceOnUse" x="-137" y="0" width="490" height="157">
<path fill-rule="evenodd" clip-rule="evenodd" d="M-99.2497 112.441C-144.919 97.2806 -156.531 161.225 -91.151 136.622C-79.6949 148.592 -65.28 150.004 -47.675 140.023C-32.0998 146.092 -19.6547 158.051 -4.56589 146.921C11.3643 156.049 26.1421 157.58 39.4524 149.394C51.3632 157.947 65.1042 157.444 78.3428 148.417C89.1769 156.452 99.8036 154.972 110.307 147.986C130.097 160.1 148.894 160.447 166.172 142.826C175.06 145.849 182.692 143.955 188.044 133.136C218.688 157.831 246.931 161.021 272.531 140.442C279.625 149.003 288.41 146.57 297.417 142.691C308.212 147.244 317.87 147.2 326.546 139.987C364.795 144.832 357.593 105.818 324.632 116.76C317.965 99.0591 304.723 99.5934 288.414 108.649C287.704 83.5277 276.965 74.9824 257.375 81.0674C251.92 49.7174 222.524 47.289 206.905 63.3907C194.312 48.8761 181.699 41.2679 167.125 56.0297C179.67 -9.78045 125.216 -10.2669 109.984 17.0436C53.6799 -6.43093 19.6304 17.3587 24.874 63.7814C3.46898 48.6528 -11.6039 55.2282 -23.0441 74.2487C-50.1393 66.4052 -64.0957 80.7803 -70.5953 100.857C-88.0089 92.9462 -94.5165 101.049 -99.2497 112.441Z" fill="white"/>
</mask>
<g mask="url(#mask1_106_89)">
<path fill-rule="evenodd" clip-rule="evenodd" d="M-146.012 131.035C-146.055 132.124 -134.165 133.595 -133.287 133.731C-112.142 137.005 -101.718 130.421 -83.3237 128.376C-75.5919 127.518 -66.3209 132.834 -57.7756 131.916C-53.1341 131.418 -44.1861 124.348 -40.6372 125.11C-17.9641 129.963 -1.14076 141.714 23.1752 133.34C28.5544 131.49 39.1013 121.744 44.0738 121.744C56.2118 121.744 64.2547 130.593 77.908 125.158C84.3438 122.598 100.354 103.178 100.928 103.115C111.16 102.058 119.781 119.663 130.779 120.046C136.206 120.237 138.69 114.064 142.996 114.172C151.063 114.379 157.503 123.914 165.546 121.274C169.398 120.014 172.903 112.772 176.368 112.772C190.595 112.772 207.215 126.769 224.808 126.904C232.038 126.96 258.906 114.834 259.085 114.91C263.878 116.999 266.693 122.945 271.502 125.528C283.13 131.773 291.934 123.65 302.952 124.029C308.61 124.225 314.799 131.765 321.027 132.802C328.991 134.126 352.84 129.823 356.437 131.302C359.32 132.487 360.197 137.431 360.197 140.099C360.197 173.092 254.468 176.916 234.47 177.669C140.568 181.226 43.679 188.292 -50.1036 181.33C-79.5156 179.149 -125.348 176.852 -147.208 153.294C-150.948 149.262 -162.093 121.736 -150.159 119.85C-149.688 119.778 -149.233 119.85 -148.783 119.95" fill="#F1E8E8"/>
</g>
</g>
</svg>
