<svg width="232" height="145" viewBox="0 0 232 145" fill="none" xmlns="http://www.w3.org/2000/svg">
<path fill-rule="evenodd" clip-rule="evenodd" d="M-346.109 107.183C-387.567 93.157 -392.98 145.333 -344.15 124.218C-339.967 130.071 -333.58 130.208 -325.245 125.301C-322.774 139.451 -289.404 133.385 -286.231 124.063C-266.78 141.78 -244.978 146.111 -219.307 128.412C-209.886 134.557 -200.373 133.139 -190.776 124.748C-175.149 138.765 -156.544 136.617 -136.138 124.682C-114.571 150.132 -91.1046 151.487 -65.8222 129.794C-47.9904 140.237 -31.9324 138.755 -17.8423 124.063C-7.19955 135.593 4.12576 136.862 16.2433 126.196C29.7619 145.749 46.4258 150.249 68.3047 129.794C79.7537 140.369 90.675 136.24 101.349 125.17C120.994 137.912 136.238 134.483 149.598 124.129C234.762 152.264 255.988 121.515 203.546 96.1229C195.991 77.8443 182.441 69.6156 160.914 74.7599C154.088 43.3469 135.272 36.8648 109.614 44.6022C96.5005 28.4256 81.9063 23.4482 64.4925 39.7683C51.9382 26.2893 38.7937 24.9358 24.9259 38.4475C8.79272 -24.6778 -48.9313 2.30197 -49.7532 31.9669C-76.7515 28.7546 -99.9391 33.0615 -107.95 59.681C-119.172 59.3084 -122.292 64.7972 -121.832 72.8809L-131.487 72.8279C-147.634 41.6145 -158.091 41.1576 -178.073 54.504L-193.05 45.4614C-202.286 11.591 -247.888 25.1775 -246.797 57.6789C-256.455 55.0327 -261.38 59.0386 -262.984 67.7085L-277.487 67.6274C-302.882 52.2898 -311.518 66.9491 -316.993 87.2642C-328.215 85.2215 -332.953 90.2332 -332.23 101.191C-339.274 101.236 -343.595 101.407 -346.109 107.183Z" fill="#FFEAEA"/>
</svg>
