<svg width="337" height="101" viewBox="0 0 337 101" fill="none" xmlns="http://www.w3.org/2000/svg">
<g filter="url(#filter0_d_126_452)">
<path fill-rule="evenodd" clip-rule="evenodd" d="M29.3344 66.5417C-1.31476 57.5698 -9.1075 95.4113 34.7695 80.8515C42.4578 87.9355 52.1319 88.7709 63.9468 82.8644C74.3995 86.4559 82.7516 93.5329 92.8778 86.9468C103.569 92.3483 113.486 93.2545 122.419 88.4099C130.413 93.4716 139.634 93.1743 148.519 87.8317C155.79 92.5867 162.921 91.7112 169.97 87.5769C183.252 94.7459 195.867 94.9512 207.462 84.5233C213.427 86.312 218.549 85.1911 222.14 78.789C242.706 93.4032 261.661 95.291 278.841 83.1121C283.602 88.1786 289.497 86.7391 295.543 84.4431C302.787 87.1379 309.268 87.112 315.091 82.8431C340.76 85.7103 335.927 62.6221 313.807 69.0974C309.332 58.6223 300.445 58.9385 289.5 64.2976C289.024 49.431 281.817 44.3739 268.669 47.975C265.009 29.4223 245.28 27.9852 234.798 37.514C226.347 28.9244 217.883 24.422 208.102 33.1579C216.521 -5.78798 179.976 -6.07588 169.754 10.0863C131.967 -3.80577 109.116 10.2727 112.635 37.7453C98.2701 28.7923 88.1546 32.6836 80.4769 43.9397C62.2929 39.298 52.9267 47.8051 48.5647 59.6866C36.8782 55.0048 32.5109 59.7998 29.3344 66.5417Z" fill="white"/>
<mask id="mask0_126_452" style="mask-type:luminance" maskUnits="userSpaceOnUse" x="4" y="60" width="329" height="33">
<path d="M4 60.4419H332.529V92.7827H4V60.4419Z" fill="white"/>
</mask>
<g mask="url(#mask0_126_452)">
<mask id="mask1_126_452" style="mask-type:luminance" maskUnits="userSpaceOnUse" x="4" y="0" width="329" height="93">
<path fill-rule="evenodd" clip-rule="evenodd" d="M29.3349 66.542C-1.31427 57.5701 -9.10701 95.4116 34.77 80.8517C42.4583 87.9358 52.1324 88.7711 63.9472 82.8646C74.4 86.4562 82.752 93.5332 92.8783 86.947C103.569 92.3486 113.487 93.2547 122.42 88.4101C130.413 93.4718 139.635 93.1745 148.519 87.8319C155.79 92.5869 162.922 91.7114 169.971 87.5771C183.252 94.7461 195.867 94.9514 207.463 84.5235C213.428 86.3122 218.55 85.1914 222.141 78.7893C242.707 93.4034 261.661 95.2912 278.842 83.1124C283.602 88.1788 289.498 86.7394 295.543 84.4433C302.787 87.1382 309.269 87.1122 315.092 82.8434C340.761 85.7105 335.928 62.6224 313.807 69.0976C309.333 58.6225 300.446 58.9388 289.5 64.2978C289.024 49.4312 281.817 44.3742 268.67 47.9752C265.009 29.4226 245.281 27.9855 234.799 37.5143C226.348 28.9247 217.883 24.4222 208.102 33.1581C216.521 -5.78774 179.977 -6.07563 169.754 10.0865C131.968 -3.80552 109.117 10.2729 112.636 37.7455C98.2706 28.7925 88.155 32.6838 80.4774 43.94C62.2934 39.2983 52.9272 47.8053 48.5651 59.6868C36.8787 55.005 32.5114 59.8001 29.3349 66.542Z" fill="white"/>
</mask>
<g mask="url(#mask1_126_452)">
<path fill-rule="evenodd" clip-rule="evenodd" d="M-2.04759 77.5456C-2.07703 78.1898 5.90303 79.0606 6.49177 79.1408C20.683 81.0782 27.6783 77.1822 40.023 75.9717C45.2119 75.4643 51.4338 78.6099 57.1686 78.0671C60.2836 77.7722 66.2887 73.5883 68.6704 74.039C83.8866 76.9108 95.177 83.8651 111.496 78.9096C115.106 77.8146 122.184 72.0473 125.521 72.0473C133.667 72.0473 139.065 77.2837 148.228 74.0673C152.547 72.5523 163.291 61.0602 163.677 61.0224C170.543 60.3971 176.329 70.8155 183.71 71.0421C187.352 71.1553 189.019 67.5024 191.909 67.5661C197.323 67.6888 201.645 73.3311 207.042 71.7689C209.627 71.0232 211.98 66.7378 214.305 66.7378C223.854 66.7378 235.007 75.0207 246.814 75.1009C251.666 75.1339 269.697 67.9578 269.818 68.0027C273.034 69.2392 274.924 72.7576 278.151 74.2868C285.955 77.9822 291.863 73.1753 299.257 73.3995C303.055 73.5151 307.208 77.9775 311.388 78.591C316.732 79.3745 332.738 76.8283 335.152 77.7037C337.086 78.4046 337.675 81.3307 337.675 82.9094C337.675 102.434 266.719 104.697 253.298 105.143C190.279 107.248 125.256 111.43 62.3174 107.31C42.5787 106.019 11.8198 104.66 -2.85042 90.7179C-5.36058 88.3322 -12.8402 72.0426 -4.83071 70.9264C-4.51494 70.884 -4.20987 70.9264 -3.90747 70.9854" fill="#F1E8E8"/>
</g>
</g>
</g>
<defs>
<filter id="filter0_d_126_452" x="0.0976562" y="0" width="336.346" height="100.693" filterUnits="userSpaceOnUse" color-interpolation-filters="sRGB">
<feFlood flood-opacity="0" result="BackgroundImageFix"/>
<feColorMatrix in="SourceAlpha" type="matrix" values="0 0 0 0 0 0 0 0 0 0 0 0 0 0 0 0 0 0 127 0" result="hardAlpha"/>
<feOffset dy="4"/>
<feGaussianBlur stdDeviation="2"/>
<feComposite in2="hardAlpha" operator="out"/>
<feColorMatrix type="matrix" values="0 0 0 0 0 0 0 0 0 0 0 0 0 0 0 0 0 0 0.25 0"/>
<feBlend mode="normal" in2="BackgroundImageFix" result="effect1_dropShadow_126_452"/>
<feBlend mode="normal" in="SourceGraphic" in2="effect1_dropShadow_126_452" result="shape"/>
</filter>
</defs>
</svg>
