<svg width="209" height="99" viewBox="0 0 209 99" fill="none" xmlns="http://www.w3.org/2000/svg">
<path fill-rule="evenodd" clip-rule="evenodd" d="M28.7264 44.0002C-3.11557 36.2808 -8.96606 62.7959 13.5805 63.9274C17.1991 74.3154 24.0787 80.3901 39.7988 74.7613C42.6592 82.2733 48.2855 86.4402 59.6586 83.6614C66.1519 96.1556 75.7118 99.8364 88.8501 93.2213C103.159 101.037 115.886 99.3426 126.841 86.9807C144.552 92.2039 159.323 86.1771 163.441 71.5587C174.557 78.1259 184.582 74.4697 193.898 64.1607C213.998 66.0801 212.837 48.8838 196.925 50.9951C194.844 34.4585 183.04 30.9785 170.128 34.8292C169.462 25.3795 158.169 18.1552 149.622 24.2986C148.585 -4.27473 117.807 -5.59284 104.583 9.70085C87.1367 -7.69119 64.8247 12.2632 65.894 24.9764C45.1179 21.2683 34.5834 29.8302 28.7264 44.0002Z" fill="white"/>
<mask id="mask0_92_675" style="mask-type:luminance" maskUnits="userSpaceOnUse" x="0" y="45" width="209" height="54">
<path d="M0 45.6216H209V98.0453H0V45.6216Z" fill="white"/>
</mask>
<g mask="url(#mask0_92_675)">
<mask id="mask1_92_675" style="mask-type:luminance" maskUnits="userSpaceOnUse" x="0" y="0" width="209" height="99">
<path fill-rule="evenodd" clip-rule="evenodd" d="M28.7386 44.0822C-3.10337 36.3628 -8.95385 62.8779 13.5927 64.0094C17.2113 74.3974 24.0909 80.4722 39.811 74.8433C42.6714 82.3554 48.2977 86.5222 59.6708 83.7435C66.1641 96.2376 75.724 99.9185 88.8623 93.3033C103.171 101.119 115.898 99.4247 126.853 87.0627C144.564 92.2859 159.335 86.2591 163.453 71.6407C174.569 78.2079 184.594 74.5517 193.911 64.2427C214.01 66.1622 212.847 48.9658 196.937 51.0772C194.857 34.5405 183.052 31.0606 170.14 34.9112C169.474 25.4615 158.182 18.2372 149.634 24.3806C148.597 -4.1927 117.819 -5.51081 104.595 9.78288C87.1489 -7.60916 64.8369 12.3452 65.9062 25.0584C45.1301 21.3504 34.5956 29.9122 28.7386 44.0822Z" fill="white"/>
</mask>
<g mask="url(#mask1_92_675)">
<path fill-rule="evenodd" clip-rule="evenodd" d="M0.997026 49.3906C-1.46681 51.0976 7.56424 56.6914 9.68333 57.1036C14.1548 57.972 17.9419 56.8223 22.1295 55.4796C22.5054 55.3578 22.9668 55.2035 23.2662 55.5509C25.533 58.1793 26.1202 61.5517 29.0635 63.9533C38.5716 71.7155 48.458 62.1661 50.2712 63.094C52.1078 64.0324 53.212 67.4618 54.3461 69.0741C60.4001 77.6814 70.2593 81.0123 80.5541 79.9897C81.8177 79.864 94.4558 76.3581 94.4558 74.7445C94.4558 74.0731 87.1614 71.1751 86.3773 70.7875C85.3508 70.2795 82.3076 69.6379 83.3497 69.1636C83.8474 68.9368 98.3232 71.9061 100.352 71.9138C110.58 71.9527 119.852 67.248 129.709 66.5455C129.867 66.5338 130.064 67.5966 130.082 67.6912C130.57 70.1706 130.091 73.5106 132.746 74.852C138.115 77.5647 149.491 71.4226 151.904 66.4742C153.016 64.1931 152.022 61.1849 153.075 59.1708C153.464 58.4295 165.772 58.4606 167.599 58.1858C170.044 57.819 181.153 52.1837 181.395 52.2394C185.12 53.0909 186.51 58.0847 192.492 58.6018C198.389 59.1125 217.391 50.478 216.621 58.55C215.381 71.582 180.329 84.2551 170.547 87.6391C124.969 103.407 69.8044 115.301 24.2421 92.8843C12.1899 86.9535 0.539512 77.369 -3.14523 63.9183C-3.69736 61.9017 -5.90069 45.6074 -1.45904 45.9029" fill="#F1E8E8"/>
</g>
</g>
</svg>
