<svg width="620" height="151" viewBox="0 0 620 151" fill="none" xmlns="http://www.w3.org/2000/svg">
<path fill-rule="evenodd" clip-rule="evenodd" d="M33.5195 111.52C-8.52877 96.9258 -14.0202 151.214 35.5054 129.243C39.7468 135.334 46.227 135.477 54.6805 130.371C57.1869 145.093 91.0304 138.783 94.2496 129.083C113.977 147.517 136.089 152.023 162.125 133.608C171.68 140.002 181.327 138.524 191.062 129.794C206.911 144.38 225.781 142.146 246.478 129.728C268.354 156.206 292.153 157.616 317.796 135.045C335.88 145.911 352.166 144.369 366.456 129.083C377.253 141.08 388.74 142.398 401.029 131.302C414.74 151.645 431.641 156.328 453.833 135.045C465.443 146.048 476.52 141.753 487.346 130.234C507.269 143.491 522.73 139.923 536.282 129.151C622.657 158.425 644.186 126.433 590.998 100.012C583.335 80.9924 569.592 72.431 547.76 77.7848C540.835 45.1002 521.752 38.3562 495.728 46.4072C482.429 29.5748 467.625 24.3961 449.963 41.378C437.233 27.3517 423.9 25.9444 409.834 40.0027C393.473 -25.6761 334.927 2.39565 334.093 33.2586C306.709 29.9186 283.192 34.399 275.066 62.0949C263.686 61.7084 260.521 67.4189 260.988 75.8287L251.194 75.7753C234.818 43.2978 224.213 42.8237 203.947 56.7091L188.756 47.2999C179.387 12.0612 133.137 26.1964 134.245 60.0128C124.447 57.2601 119.453 61.4265 117.827 70.4471L103.117 70.3638C77.3613 54.4048 68.6025 69.6569 63.0484 90.7946C51.6662 88.6697 46.8604 93.8847 47.5962 105.284C40.4512 105.333 36.0698 105.511 33.5195 111.52Z" fill="white"/>
<mask id="mask0_126_641" style="mask-type:luminance" maskUnits="userSpaceOnUse" x="0" y="91" width="620" height="60">
<path d="M0 91.9948H620V151H0V91.9948Z" fill="white"/>
</mask>
<g mask="url(#mask0_126_641)">
<mask id="mask1_126_641" style="mask-type:luminance" maskUnits="userSpaceOnUse" x="0" y="0" width="620" height="151">
<path fill-rule="evenodd" clip-rule="evenodd" d="M33.5195 111.52C-8.52877 96.9258 -14.0202 151.214 35.5054 129.243C39.7468 135.334 46.227 135.477 54.6805 130.371C57.1869 145.093 91.0304 138.783 94.2496 129.083C113.977 147.517 136.089 152.023 162.125 133.608C171.68 140.002 181.327 138.524 191.062 129.794C206.911 144.38 225.781 142.146 246.478 129.728C268.354 156.206 292.153 157.616 317.796 135.045C335.88 145.911 352.166 144.369 366.456 129.083C377.253 141.08 388.74 142.4 401.029 131.302C414.74 151.645 431.641 156.328 453.833 135.045C465.443 146.048 476.52 141.753 487.346 130.234C507.269 143.491 522.73 139.923 536.282 129.151C622.657 158.425 644.186 126.433 590.998 100.012C583.335 80.9924 569.592 72.431 547.76 77.7848C540.835 45.1002 521.752 38.3562 495.728 46.4072C482.429 29.5748 467.625 24.3961 449.963 41.378C437.233 27.3517 423.9 25.9444 409.834 40.0027C393.473 -25.6761 334.927 2.39565 334.093 33.2586C306.709 29.9186 283.192 34.399 275.066 62.0949C263.686 61.7084 260.521 67.4189 260.988 75.8287L251.194 75.7753C234.818 43.2978 224.213 42.8237 203.947 56.7091L188.756 47.2999C179.387 12.0612 133.137 26.1964 134.245 60.0128C124.447 57.2601 119.453 61.4265 117.827 70.4471L103.117 70.3638C77.3613 54.4048 68.6025 69.6569 63.0484 90.7946C51.6662 88.6697 46.8604 93.8847 47.5962 105.284C40.4512 105.333 36.0698 105.511 33.5195 111.52Z" fill="white"/>
</mask>
<g mask="url(#mask1_126_641)">
<path fill-rule="evenodd" clip-rule="evenodd" d="M-0.982618 117.596C-1.67245 117.135 0.49111 119.966 0.892464 120.342C3.00585 122.315 5.738 123.103 8.40742 123.97C16.1231 126.48 27.1039 124.301 34.3074 120.835C39.1613 118.501 72.7455 109.752 75.5299 110.209C93.3317 113.126 109.566 123.458 128.007 126.151C143.039 128.346 121.813 114.358 117.645 110.978C117.503 110.858 114.806 108.676 115.145 108.443C115.904 107.928 118.701 109.829 119.29 110.145C127.119 114.354 134.494 118.497 143.466 119.405C155.513 120.62 165.879 111.589 177.131 108.693C184.433 106.813 189.695 110.367 196.553 110.126C204.67 109.84 211.888 104.9 220.363 105.02C240.859 105.308 264.669 121.465 282.997 119.219C298.084 117.367 292.979 104.819 284.582 98.8329C283.892 98.3396 282.824 97.3124 284.279 97.1501C302.965 95.0871 315.887 111.574 332.284 116.02C341.459 118.51 345.69 111.463 353.354 110.623C363.603 109.502 375.993 127.791 389.921 114.38C398.926 105.709 390.552 99.4949 382.038 96.6333C379.885 95.9072 375.081 95.0615 373.486 93.2271C373.428 93.163 373.438 93.0584 373.526 93.0199C384.026 88.7296 398.665 102.809 409.384 101.594C416.297 100.81 442.923 88.8535 448.673 93.9959C448.908 94.203 444.727 95.747 444.451 95.8453C434.691 99.2493 405.868 120.673 429.272 126.337C437.31 128.282 441.202 122.226 448.331 121.126C454.021 120.248 460.122 124.406 465.986 124.406C473.906 124.406 478.641 119.629 485.792 117.743C491.928 116.124 498.429 117.15 504.625 115.751C506.592 115.307 508.513 114.696 510.396 113.965C519.837 110.307 531.946 98.2905 542.168 98.0235C544.292 97.968 539.348 113.329 540.665 116.063C544.449 123.909 557.679 123.381 564.78 124.242C573.871 125.339 584.056 126.108 592.735 122.414C598.661 119.892 625.276 81.992 623.516 117.784C620.995 169.06 506.636 157.548 474.049 160.505C405.985 166.679 338.353 164.704 270.137 164.407C223.601 164.204 176.995 166.929 130.484 164.595C90.0665 162.564 45.0687 162.195 7.02568 146.451C-1.98392 142.723 -11.9906 138.093 -19.0415 131.048C-28.1535 121.946 -24.4452 108.599 -11.1984 109.128" fill="#F1E8E8"/>
</g>
</g>
</svg>
