<svg width="735" height="154" viewBox="0 0 735 154" fill="none" xmlns="http://www.w3.org/2000/svg">
<path fill-rule="evenodd" clip-rule="evenodd" d="M-138.314 138.969C-200.941 120.783 -209.119 188.431 -135.355 161.054C-129.036 168.644 -119.386 168.822 -106.795 162.46C-103.063 180.805 -52.653 172.94 -47.8591 160.854C-18.4763 183.826 14.4588 189.44 53.2378 166.493C67.4704 174.461 81.8402 172.621 96.3377 161.742C119.945 179.915 148.051 177.132 178.876 161.657C211.457 194.654 246.906 196.411 285.098 168.284C312.036 181.824 336.294 179.903 357.579 160.854C373.656 175.803 390.764 177.449 409.07 163.62C429.491 188.971 454.665 194.806 487.716 168.284C505.011 181.996 521.509 176.642 537.634 162.29C567.31 178.81 590.338 174.364 610.521 160.939C739.172 197.418 771.237 157.551 692.017 124.628C680.603 100.929 660.134 90.2602 627.615 96.9301C617.304 56.2016 588.879 47.7971 550.119 57.8291C530.309 36.8553 508.263 30.4018 481.957 51.5616C462.992 34.0855 443.135 32.3306 422.186 49.8492C397.815 -31.996 310.614 2.98462 309.373 41.4467C268.588 37.2819 233.56 42.866 221.458 77.3796C204.506 76.8964 199.793 84.013 200.488 94.4938L185.903 94.4251C161.51 53.9554 145.714 53.363 115.527 70.6673L92.9037 58.9431C78.9502 15.0283 10.0623 32.6439 11.7107 74.7836C-2.87906 71.3527 -10.3194 76.5466 -12.7411 87.7876L-34.6505 87.6825C-73.0133 67.7964 -86.0587 86.803 -94.3291 113.143C-111.281 110.494 -118.44 116.992 -117.348 131.199C-127.988 131.258 -134.515 131.48 -138.314 138.969Z" fill="#FFEAEA"/>
</svg>
