<svg width="611" height="145" viewBox="0 0 611 145" fill="none" xmlns="http://www.w3.org/2000/svg">
<path fill-rule="evenodd" clip-rule="evenodd" d="M32.8911 107.183C-8.56673 93.157 -13.9805 145.333 34.8496 124.218C39.0328 130.071 45.4203 130.208 53.7554 125.301C56.2258 139.451 89.5959 133.385 92.7693 124.063C112.22 141.78 134.022 146.111 159.693 128.412C169.114 134.557 178.627 133.139 188.224 124.748C203.851 138.765 222.456 136.617 242.862 124.682C264.429 150.132 287.895 151.487 313.178 129.794C331.01 140.237 347.068 138.755 361.158 124.063C371.8 135.593 383.126 136.862 395.243 126.196C408.762 145.749 425.426 150.249 447.305 129.794C458.754 140.369 469.675 136.24 480.349 125.17C499.994 137.912 515.238 134.483 528.598 124.129C613.762 152.264 634.988 121.515 582.546 96.1229C574.991 77.8443 561.441 69.6156 539.914 74.7599C533.088 43.3469 514.272 36.8648 488.614 44.6022C475.501 28.4256 460.906 23.4482 443.492 39.7683C430.938 26.2893 417.794 24.9358 403.926 38.4475C387.793 -24.6778 330.069 2.30197 329.247 31.9669C302.249 28.7546 279.061 33.0615 271.05 59.681C259.828 59.3084 256.708 64.7972 257.168 72.8809L247.513 72.8279C231.366 41.6145 220.909 41.1576 200.927 54.504L185.95 45.4614C176.714 11.591 131.112 25.1775 132.203 57.6789C122.545 55.0327 117.62 59.0386 116.016 67.7085L101.513 67.6274C76.118 52.2898 67.4823 66.9491 62.0075 87.2642C50.7855 85.2215 46.0465 90.2332 46.7698 101.191C39.7263 101.236 35.4054 101.407 32.8911 107.183Z" fill="white"/>
</svg>
