<svg width="1227" height="590" viewBox="0 0 1227 590" fill="none" xmlns="http://www.w3.org/2000/svg">
<path fill-rule="evenodd" clip-rule="evenodd" d="M143.802 196.343C144.587 196.343 145.373 196.369 146.159 196.419C146.944 196.468 147.727 196.544 148.506 196.643C149.285 196.742 150.06 196.864 150.833 197.013C151.605 197.161 152.371 197.336 153.134 197.531C153.893 197.729 154.649 197.95 155.395 198.195C156.141 198.439 156.88 198.706 157.61 199C158.339 199.291 159.062 199.604 159.772 199.941C160.481 200.278 161.181 200.637 161.868 201.02C162.554 201.4 163.231 201.803 163.891 202.225C164.555 202.651 165.202 203.097 165.836 203.559C166.469 204.024 167.09 204.509 167.691 205.014C168.295 205.516 168.882 206.041 169.453 206.582C170.021 207.124 170.576 207.682 171.111 208.256C171.645 208.834 172.16 209.424 172.659 210.035C173.157 210.643 173.632 211.266 174.091 211.907C174.55 212.547 174.986 213.197 175.405 213.864C175.821 214.531 176.214 215.211 176.59 215.904C176.963 216.594 177.313 217.297 177.643 218.01C177.973 218.727 178.28 219.449 178.561 220.182C178.845 220.915 179.105 221.658 179.343 222.407C179.577 223.156 179.792 223.912 179.98 224.678C180.168 225.441 180.333 226.21 180.472 226.982C180.614 227.755 180.726 228.534 180.819 229.313C180.911 230.095 180.977 230.877 181.017 231.663C181.06 232.449 181.076 233.234 181.066 234.02C181.056 234.805 181.023 235.591 180.967 236.373C180.908 237.159 180.825 237.941 180.716 238.72C180.611 239.499 180.479 240.272 180.323 241.044C180.165 241.813 179.983 242.579 179.779 243.338C179.574 244.098 179.346 244.847 179.092 245.593C178.841 246.336 178.564 247.072 178.267 247.801C177.967 248.527 177.646 249.244 177.3 249.95C176.957 250.657 176.59 251.353 176.201 252.036C175.814 252.72 175.405 253.39 174.973 254.047C174.544 254.707 174.091 255.35 173.619 255.978C173.147 256.608 172.659 257.222 172.147 257.82C171.635 258.417 171.107 258.998 170.563 259.562C170.015 260.127 169.45 260.675 168.869 261.203C168.285 261.731 167.687 262.243 167.073 262.731C166.46 263.223 165.832 263.695 165.189 264.147C164.545 264.596 163.888 265.029 163.215 265.438C162.545 265.847 161.861 266.237 161.165 266.603C160.472 266.97 159.765 267.313 159.046 267.633C158.329 267.957 157.603 268.254 156.867 268.531C156.131 268.805 155.385 269.059 154.632 269.287C153.883 269.515 153.124 269.719 152.358 269.901C151.592 270.083 150.823 270.238 150.047 270.37C149.271 270.502 148.496 270.607 147.713 270.69C146.931 270.776 146.146 270.832 145.363 270.865C144.578 270.898 143.792 270.908 143.003 270.891C142.217 270.875 141.435 270.832 140.649 270.766C139.867 270.7 139.088 270.607 138.309 270.492C137.53 270.376 136.758 270.238 135.989 270.073C135.219 269.908 134.457 269.719 133.701 269.505C132.945 269.294 132.196 269.056 131.453 268.795C130.71 268.538 129.977 268.254 129.255 267.947C128.532 267.64 127.819 267.31 127.116 266.96C126.412 266.607 125.719 266.234 125.039 265.838C124.363 265.441 123.696 265.026 123.042 264.587C122.389 264.151 121.752 263.692 121.124 263.213C120.5 262.738 119.893 262.24 119.302 261.721C118.708 261.206 118.134 260.672 117.573 260.117C117.015 259.566 116.473 258.995 115.952 258.407C115.43 257.82 114.925 257.219 114.44 256.598C115.612 257.625 116.863 258.542 118.196 259.345C119.53 260.147 120.926 260.823 122.382 261.378C123.838 261.929 125.333 262.348 126.865 262.632C128.393 262.916 129.938 263.058 131.496 263.065C146.558 263.065 158.785 249.884 158.785 233.62C158.785 217.357 146.558 204.176 131.496 204.176C129.941 204.173 128.4 204.311 126.871 204.585C125.343 204.863 123.851 205.272 122.392 205.813C120.936 206.355 119.543 207.025 118.206 207.817C116.869 208.609 115.615 209.517 114.44 210.534C115.308 209.421 116.239 208.365 117.226 207.358C118.216 206.355 119.256 205.407 120.355 204.519C121.451 203.631 122.593 202.809 123.782 202.053C124.973 201.298 126.201 200.608 127.469 199.99C128.736 199.373 130.037 198.828 131.367 198.36C132.694 197.891 134.048 197.498 135.421 197.181C136.797 196.864 138.184 196.627 139.587 196.468C140.986 196.31 142.392 196.234 143.802 196.234V196.343Z" fill="white"/>
<path fill-rule="evenodd" clip-rule="evenodd" d="M214.671 338.142H927.823V530.97H214.671V338.142Z" fill="#917F63"/>
<path fill-rule="evenodd" clip-rule="evenodd" d="M142.683 226.906C142.683 226.906 175.158 295.922 184.024 331.319C192.894 366.711 214.67 426.122 214.67 426.122L252.545 408.465L311.516 434.308L344.836 489.081L399.602 454.421L479.666 452.648L518.251 510.5L639.548 451.338L734.539 484.522L818.914 450.902L917.999 510.5L1081.02 190.256C1081.02 190.256 974.838 169.899 885.498 207.068C796.154 244.236 765.155 274.311 765.155 274.311C765.155 274.311 701.467 150.496 544.857 71.7125C388.25 -7.07446 326.225 0.92043 326.225 0.92043C326.225 0.92043 416.684 125.227 441.461 166.816C466.241 208.405 467.552 223.44 467.552 223.44C467.552 223.44 404.078 184.526 346.556 157.072C289.03 129.621 219.146 123.917 219.146 123.917C219.146 123.917 254.103 175.22 269.139 203.985C284.175 232.749 302.32 288.911 302.32 288.911C302.32 288.911 256.747 256.625 222.694 243.801C188.639 230.973 142.683 226.906 142.683 226.906Z" fill="#F3EEE8"/>
<path fill-rule="evenodd" clip-rule="evenodd" d="M142.683 226.906C142.683 226.906 175.158 295.922 184.024 331.319C192.894 366.711 214.67 426.122 214.67 426.122L252.545 408.465L311.516 434.308L344.836 489.081L399.602 454.421L479.666 452.648L518.251 510.5L639.548 451.338L734.539 484.522L818.914 450.902L917.999 510.5L1081.02 190.256C1081.02 190.256 974.838 169.899 885.498 207.068C796.154 244.236 765.155 274.311 765.155 274.311C765.155 274.311 701.467 150.496 544.857 71.7125C388.25 -7.07446 326.225 0.92043 326.225 0.92043C326.225 0.92043 416.684 125.227 441.461 166.816C466.241 208.405 467.552 223.44 467.552 223.44C467.552 223.44 404.078 184.526 346.556 157.072C289.03 129.621 219.146 123.917 219.146 123.917C219.146 123.917 254.103 175.22 269.139 203.985C284.175 232.749 302.32 288.911 302.32 288.911C302.32 288.911 256.747 256.625 222.694 243.801C188.639 230.973 142.683 226.906 142.683 226.906Z" fill="#F3EEE8"/>
<mask id="mask0_48_295" style="mask-type:luminance" maskUnits="userSpaceOnUse" x="214" y="289" width="95" height="145">
<path d="M214.641 289.004H308.44V433.507H214.641V289.004Z" fill="white"/>
</mask>
<g mask="url(#mask0_48_295)">
<mask id="mask1_48_295" style="mask-type:luminance" maskUnits="userSpaceOnUse" x="142" y="0" width="940" height="511">
<path fill-rule="evenodd" clip-rule="evenodd" d="M142.683 226.907C142.683 226.907 175.157 295.923 184.024 331.319C192.893 366.712 214.67 426.123 214.67 426.123L252.545 408.466L311.516 434.309L344.836 489.081L399.602 454.422L479.666 452.649L518.251 510.501L639.547 451.339L734.539 484.523L818.914 450.903L917.998 510.501L1081.02 190.257C1081.02 190.257 974.837 169.9 885.497 207.069C796.154 244.237 765.155 274.312 765.155 274.312C765.155 274.312 701.466 150.497 544.856 71.7134C388.25 -7.07348 326.225 0.921406 326.225 0.921406C326.225 0.921406 416.684 125.228 441.461 166.817C466.241 208.406 467.552 223.441 467.552 223.441C467.552 223.441 404.078 184.527 346.556 157.073C289.03 129.622 219.146 123.918 219.146 123.918C219.146 123.918 254.103 175.221 269.138 203.986C284.174 232.75 302.32 288.912 302.32 288.912C302.32 288.912 256.747 256.626 222.694 243.802C188.638 230.974 142.683 226.907 142.683 226.907Z" fill="white"/>
</mask>
<g mask="url(#mask1_48_295)">
<path fill-rule="evenodd" clip-rule="evenodd" d="M302.238 289.348L214.671 426.205L252.466 408.466L307.886 432.754L261.28 394.139L302.238 289.348Z" fill="#DCD8D2"/>
</g>
</g>
<mask id="mask2_48_295" style="mask-type:luminance" maskUnits="userSpaceOnUse" x="217" y="123" width="246" height="368">
<path d="M217.177 123.375H462.239V490.123H217.177V123.375Z" fill="white"/>
</mask>
<g mask="url(#mask2_48_295)">
<mask id="mask3_48_295" style="mask-type:luminance" maskUnits="userSpaceOnUse" x="142" y="0" width="940" height="511">
<path fill-rule="evenodd" clip-rule="evenodd" d="M142.683 226.906C142.683 226.906 175.158 295.922 184.024 331.318C192.894 366.711 214.67 426.121 214.67 426.121L252.545 408.464L311.516 434.307L344.836 489.08L399.602 454.42L479.667 452.648L518.251 510.5L639.548 451.337L734.539 484.521L818.914 450.901L917.999 510.5L1081.02 190.255C1081.02 190.255 974.838 169.899 885.498 207.067C796.154 244.236 765.155 274.311 765.155 274.311C765.155 274.311 701.467 150.496 544.857 71.712C388.25 -7.07494 326.225 0.919942 326.225 0.919942C326.225 0.919942 416.685 125.227 441.461 166.815C466.242 208.404 467.552 223.44 467.552 223.44C467.552 223.44 404.078 184.525 346.556 157.071C289.03 129.62 219.146 123.916 219.146 123.916C219.146 123.916 254.103 175.22 269.139 203.984C284.175 232.749 302.32 288.911 302.32 288.911C302.32 288.911 256.747 256.624 222.695 243.8C188.639 230.973 142.683 226.906 142.683 226.906Z" fill="white"/>
</mask>
<g mask="url(#mask3_48_295)">
<path fill-rule="evenodd" clip-rule="evenodd" d="M217.536 123.561L302.43 288.911C317.224 322.934 328.923 357.994 337.522 394.083C349.692 448.281 344.18 489.79 344.18 489.79L462.066 239.107C462.066 239.107 419.768 274.582 371.086 281.979C322.404 289.374 304.75 170.091 285.674 153.962C261.115 133.222 217.453 123.561 217.453 123.561H217.536Z" fill="#DCD8D2"/>
</g>
</g>
<mask id="mask4_48_295" style="mask-type:luminance" maskUnits="userSpaceOnUse" x="315" y="0" width="420" height="511">
<path d="M315.201 0H734.341V510.405H315.201V0Z" fill="white"/>
</mask>
<g mask="url(#mask4_48_295)">
<mask id="mask5_48_295" style="mask-type:luminance" maskUnits="userSpaceOnUse" x="142" y="0" width="940" height="511">
<path fill-rule="evenodd" clip-rule="evenodd" d="M142.683 226.907C142.683 226.907 175.158 295.923 184.024 331.319C192.894 366.712 214.67 426.123 214.67 426.123L252.545 408.466L311.516 434.309L344.836 489.081L399.602 454.422L479.666 452.649L518.251 510.501L639.548 451.339L734.539 484.523L818.914 450.903L917.999 510.501L1081.02 190.257C1081.02 190.257 974.838 169.9 885.498 207.069C796.154 244.237 765.155 274.312 765.155 274.312C765.155 274.312 701.467 150.497 544.857 71.7134C388.25 -7.07348 326.225 0.921406 326.225 0.921406C326.225 0.921406 416.684 125.228 441.461 166.817C466.241 208.406 467.552 223.441 467.552 223.441C467.552 223.441 404.078 184.527 346.556 157.073C289.03 129.622 219.146 123.918 219.146 123.918C219.146 123.918 254.103 175.221 269.139 203.986C284.175 232.75 302.32 288.912 302.32 288.912C302.32 288.912 256.747 256.626 222.694 243.802C188.639 230.974 142.683 226.907 142.683 226.907Z" fill="white"/>
</mask>
<g mask="url(#mask5_48_295)">
<path fill-rule="evenodd" clip-rule="evenodd" d="M315.445 0.702979C315.445 0.702979 482.997 190.831 500.677 326.869C518.36 462.908 518.142 510.392 518.142 510.392C518.142 510.392 647.463 366.167 687.329 333.527C727.198 300.891 734.047 293.715 734.047 293.715C734.047 293.715 631.2 360.08 591.113 336.584C551.026 313.088 483.215 108.525 431.011 57.8753C378.809 7.22564 336.729 -11.8208 336.729 -11.8208L315.501 0.702979H315.445Z" fill="#DCD8D2"/>
</g>
</g>
<mask id="mask6_48_295" style="mask-type:luminance" maskUnits="userSpaceOnUse" x="756" y="195" width="323" height="317">
<path d="M756.312 195.205H1078.27V511.25H756.312V195.205Z" fill="white"/>
</mask>
<g mask="url(#mask6_48_295)">
<mask id="mask7_48_295" style="mask-type:luminance" maskUnits="userSpaceOnUse" x="142" y="0" width="940" height="511">
<path fill-rule="evenodd" clip-rule="evenodd" d="M142.683 226.907C142.683 226.907 175.158 295.923 184.024 331.319C192.894 366.712 214.67 426.123 214.67 426.123L252.545 408.466L311.516 434.309L344.836 489.081L399.602 454.422L479.666 452.649L518.251 510.501L639.548 451.339L734.539 484.523L818.914 450.903L917.999 510.501L1081.02 190.257C1081.02 190.257 974.838 169.9 885.498 207.069C796.154 244.237 765.155 274.312 765.155 274.312C765.155 274.312 701.467 150.497 544.857 71.7134C388.25 -7.07348 326.225 0.921406 326.225 0.921406C326.225 0.921406 416.684 125.228 441.461 166.817C466.241 208.406 467.552 223.441 467.552 223.441C467.552 223.441 404.078 184.527 346.556 157.073C289.03 129.622 219.146 123.918 219.146 123.918C219.146 123.918 254.103 175.221 269.139 203.986C284.175 232.75 302.32 288.912 302.32 288.912C302.32 288.912 256.747 256.626 222.694 243.802C188.639 230.974 142.683 226.907 142.683 226.907Z" fill="white"/>
</mask>
<g mask="url(#mask7_48_295)">
<path fill-rule="evenodd" clip-rule="evenodd" d="M756.669 242.844L765.155 274.312C765.155 274.312 842.272 358.773 873.271 416.844C904.27 474.917 917.999 510.557 917.999 510.557L1078.1 196.017C1078.1 196.017 997.241 315.082 957.32 327.88C917.398 340.678 838.836 299.416 821.423 283.644C804.014 267.869 777.765 241.616 777.765 241.616L756.56 242.927L756.669 242.844Z" fill="#DCD8D2"/>
</g>
</g>
<mask id="mask8_48_295" style="mask-type:luminance" maskUnits="userSpaceOnUse" x="734" y="278" width="86" height="208">
<path d="M734.342 278.862H819.691V485.052H734.342V278.862Z" fill="white"/>
</mask>
<g mask="url(#mask8_48_295)">
<mask id="mask9_48_295" style="mask-type:luminance" maskUnits="userSpaceOnUse" x="142" y="0" width="940" height="511">
<path fill-rule="evenodd" clip-rule="evenodd" d="M142.683 226.906C142.683 226.906 175.158 295.922 184.024 331.318C192.894 366.711 214.67 426.121 214.67 426.121L252.545 408.464L311.516 434.307L344.836 489.08L399.602 454.42L479.666 452.648L518.251 510.5L639.548 451.337L734.539 484.521L818.914 450.901L917.999 510.5L1081.02 190.255C1081.02 190.255 974.838 169.899 885.498 207.067C796.154 244.236 765.155 274.311 765.155 274.311C765.155 274.311 701.467 150.496 544.857 71.712C388.25 -7.07494 326.225 0.919942 326.225 0.919942C326.225 0.919942 416.684 125.227 441.461 166.815C466.241 208.404 467.552 223.44 467.552 223.44C467.552 223.44 404.078 184.525 346.556 157.071C289.03 129.62 219.146 123.916 219.146 123.916C219.146 123.916 254.103 175.22 269.139 203.984C284.175 232.749 302.32 288.911 302.32 288.911C302.32 288.911 256.747 256.624 222.694 243.8C188.639 230.973 142.683 226.906 142.683 226.906Z" fill="white"/>
</mask>
<g mask="url(#mask9_48_295)">
<path fill-rule="evenodd" clip-rule="evenodd" d="M762.373 279.548C762.373 279.548 743.026 332.928 741.362 382.128C739.695 431.332 734.539 484.577 734.539 484.577L818.915 450.953L802.05 398.448C802.05 398.448 806.361 416.706 791.543 428.031C776.725 439.357 756.669 410.84 756.669 382.076C756.669 353.311 762.373 279.548 762.373 279.548Z" fill="#DCD8D2"/>
</g>
</g>
<mask id="mask10_48_295" style="mask-type:luminance" maskUnits="userSpaceOnUse" x="475" y="283" width="37" height="217">
<path d="M475.758 283.088H511.25V499.419H475.758V283.088Z" fill="white"/>
</mask>
<g mask="url(#mask10_48_295)">
<mask id="mask11_48_295" style="mask-type:luminance" maskUnits="userSpaceOnUse" x="142" y="0" width="940" height="511">
<path fill-rule="evenodd" clip-rule="evenodd" d="M142.683 226.907C142.683 226.907 175.158 295.923 184.024 331.319C192.894 366.712 214.67 426.122 214.67 426.122L252.545 408.465L311.516 434.308L344.836 489.081L399.602 454.421L479.666 452.648L518.251 510.501L639.548 451.338L734.539 484.522L818.914 450.902L917.999 510.501L1081.02 190.256C1081.02 190.256 974.838 169.9 885.498 207.068C796.154 244.237 765.155 274.312 765.155 274.312C765.155 274.312 701.467 150.497 544.857 71.713C388.25 -7.07397 326.225 0.920918 326.225 0.920918C326.225 0.920918 416.684 125.228 441.461 166.816C466.241 208.405 467.552 223.441 467.552 223.441C467.552 223.441 404.078 184.526 346.556 157.072C289.03 129.621 219.146 123.917 219.146 123.917C219.146 123.917 254.103 175.221 269.139 203.985C284.175 232.75 302.32 288.912 302.32 288.912C302.32 288.912 256.747 256.625 222.694 243.801C188.639 230.974 142.683 226.907 142.683 226.907Z" fill="white"/>
</mask>
<g mask="url(#mask11_48_295)">
<path fill-rule="evenodd" clip-rule="evenodd" d="M476.092 283.561C476.092 283.561 478.822 361.829 478.304 390.29C477.785 418.754 479.667 452.701 479.667 452.701L510.448 498.848C510.448 498.848 503.463 442.851 501.387 437.312C499.314 431.77 502.206 444.488 495.931 443.805C489.656 443.125 489.573 356.726 487.744 344.961C485.916 333.2 476.01 283.561 476.01 283.561H476.092Z" fill="#DCD8D2"/>
</g>
</g>
<path fill-rule="evenodd" clip-rule="evenodd" d="M1171.86 377.436C1171.86 377.436 1111.28 437.966 1081.02 479.419C1062.18 505.407 1045.27 532.587 1030.26 560.962L936.471 531.105L919.088 530.861C919.088 530.861 914.668 469.757 894.203 423.584C873.737 377.41 849.97 356.125 849.97 356.125C849.97 356.125 913.549 362.757 948.398 381.559C983.246 400.361 990.966 414.305 990.966 414.305C990.966 414.305 1021.39 385.543 1075.02 374.492C1083 372.832 1091.06 371.647 1099.18 370.94C1107.31 370.234 1115.45 370.009 1123.6 370.267C1131.76 370.524 1139.87 371.26 1147.94 372.478C1156 373.696 1163.97 375.386 1171.84 377.545L1171.86 377.436Z" fill="#F3EEE8"/>
<mask id="mask12_48_295" style="mask-type:luminance" maskUnits="userSpaceOnUse" x="990" y="376" width="183" height="186">
<path d="M990.388 376.888H1172.07V561.107H990.388V376.888Z" fill="white"/>
</mask>
<g mask="url(#mask12_48_295)">
<mask id="mask13_48_295" style="mask-type:luminance" maskUnits="userSpaceOnUse" x="849" y="356" width="323" height="205">
<path fill-rule="evenodd" clip-rule="evenodd" d="M1171.86 377.436C1171.86 377.436 1111.28 437.965 1081.02 479.419C1062.18 505.407 1045.27 532.587 1030.26 560.962L936.471 531.105L919.088 530.86C919.088 530.86 914.668 469.757 894.202 423.583C873.736 377.409 849.969 356.125 849.969 356.125C849.969 356.125 913.549 362.757 948.397 381.559C983.245 400.361 990.966 414.304 990.966 414.304C990.966 414.304 1021.39 385.543 1075.01 374.491C1091.04 371.157 1107.24 369.748 1123.6 370.266C1139.97 370.781 1156.05 373.211 1171.83 377.548L1171.86 377.436Z" fill="white"/>
</mask>
<g mask="url(#mask13_48_295)">
<path fill-rule="evenodd" clip-rule="evenodd" d="M1030.26 560.962L1171.83 377.437C1171.83 377.437 1079.65 462.036 1059.21 473.715C1038.78 485.397 1011.38 440.26 1006.96 429.205C1002.54 418.154 997.624 405.409 997.624 405.409L990.966 414.196L1030.26 560.962Z" fill="#DCD8D2"/>
</g>
</g>
<path fill-rule="evenodd" clip-rule="evenodd" d="M741.088 298.788L639.548 451.364L727.198 481.984L671.121 442.277L741.088 298.788Z" fill="#DCD8D2"/>
<path fill-rule="evenodd" clip-rule="evenodd" d="M459.066 253.433L399.603 454.477L474.264 452.813L424.763 434.556L459.066 253.433Z" fill="#DCD8D2"/>
<mask id="mask14_48_295" style="mask-type:luminance" maskUnits="userSpaceOnUse" x="499" y="510" width="532" height="86">
<path d="M499.419 510.405H1030.95V595.543H499.419V510.405Z" fill="white"/>
</mask>
<g mask="url(#mask14_48_295)">
<path fill-rule="evenodd" clip-rule="evenodd" d="M509.055 510.557H927.087C927.701 510.557 928.315 510.616 928.919 510.738C929.523 510.857 930.111 511.035 930.682 511.27C931.253 511.507 931.794 511.794 932.306 512.138C932.821 512.481 933.296 512.867 933.732 513.303C934.171 513.739 934.56 514.214 934.904 514.726C935.247 515.241 935.537 515.779 935.775 516.35C936.013 516.921 936.191 517.505 936.313 518.113C936.435 518.717 936.498 519.327 936.501 519.945V531.105L1030.26 560.962V600.996H499.671V519.945C499.671 519.327 499.734 518.717 499.856 518.113C499.978 517.505 500.156 516.921 500.394 516.35C500.631 515.779 500.922 515.241 501.265 514.726C501.609 514.214 501.998 513.739 502.437 513.303C502.873 512.867 503.348 512.481 503.863 512.138C504.375 511.794 504.916 511.507 505.487 511.27C506.058 511.035 506.646 510.857 507.25 510.738C507.857 510.616 508.468 510.557 509.085 510.557H509.055Z" fill="#FFDFB1"/>
</g>
<mask id="mask15_48_295" style="mask-type:luminance" maskUnits="userSpaceOnUse" x="614" y="566" width="290" height="30">
<path d="M614.345 566.178H903.349V595.543H614.345V566.178Z" fill="white"/>
</mask>
<g mask="url(#mask15_48_295)">
<path fill-rule="evenodd" clip-rule="evenodd" d="M618.373 566.61H899.28C899.514 566.61 899.745 566.633 899.977 566.679C900.208 566.725 900.429 566.791 900.647 566.881C900.864 566.973 901.069 567.082 901.264 567.211C901.459 567.343 901.64 567.491 901.805 567.656C901.974 567.821 902.122 568.003 902.251 568.198C902.383 568.392 902.492 568.6 902.581 568.815C902.67 569.033 902.739 569.257 902.786 569.488C902.832 569.716 902.855 569.95 902.855 570.185V600.996H614.798V570.185C614.798 569.95 614.821 569.716 614.867 569.488C614.914 569.257 614.98 569.033 615.072 568.815C615.161 568.6 615.27 568.392 615.402 568.198C615.531 568.003 615.679 567.821 615.844 567.656C616.013 567.491 616.191 567.343 616.389 567.211C616.584 567.082 616.789 566.973 617.006 566.881C617.221 566.791 617.445 566.725 617.677 566.679C617.908 566.633 618.139 566.61 618.373 566.61Z" fill="#C9A16E"/>
</g>
<mask id="mask16_48_295" style="mask-type:luminance" maskUnits="userSpaceOnUse" x="1030" y="560" width="197" height="36">
<path d="M1030.1 560.263H1227V595.544H1030.1V560.263Z" fill="white"/>
</mask>
<g mask="url(#mask16_48_295)">
<path fill-rule="evenodd" clip-rule="evenodd" d="M1190.44 561.616L1030.29 560.963V600.997H1226.54L1190.44 561.616Z" fill="#FFDFB1"/>
</g>
<mask id="mask17_48_295" style="mask-type:luminance" maskUnits="userSpaceOnUse" x="1030" y="572" width="181" height="24">
<path d="M1030.1 572.938H1210.1V595.542H1030.1V572.938Z" fill="white"/>
</mask>
<g mask="url(#mask17_48_295)">
<path fill-rule="evenodd" clip-rule="evenodd" d="M1185.23 573.542L1030.29 573.077V600.996H1209.74L1185.23 573.542Z" fill="#C9A16E"/>
</g>
<mask id="mask18_48_295" style="mask-type:luminance" maskUnits="userSpaceOnUse" x="652" y="566" width="8" height="30">
<path d="M652.373 566.178H659.978V595.543H652.373V566.178Z" fill="white"/>
</mask>
<g mask="url(#mask18_48_295)">
<path d="M652.538 602.877L652.594 566.61H659.714L659.662 602.877H652.538Z" fill="#917F63"/>
</g>
<mask id="mask19_48_295" style="mask-type:luminance" maskUnits="userSpaceOnUse" x="703" y="566" width="8" height="30">
<path d="M703.074 566.178H710.68V595.543H703.074V566.178Z" fill="white"/>
</mask>
<g mask="url(#mask19_48_295)">
<path d="M703.405 602.877L703.458 566.61H710.581L710.525 602.877H703.405Z" fill="#917F63"/>
</g>
<mask id="mask20_48_295" style="mask-type:luminance" maskUnits="userSpaceOnUse" x="753" y="566" width="10" height="30">
<path d="M753.777 566.178H762.228V595.543H753.777V566.178Z" fill="white"/>
</mask>
<g mask="url(#mask20_48_295)">
<path d="M754.295 602.877L754.322 566.61H761.445L761.419 602.877H754.295Z" fill="#917F63"/>
</g>
<mask id="mask21_48_295" style="mask-type:luminance" maskUnits="userSpaceOnUse" x="804" y="566" width="9" height="30">
<path d="M804.479 566.178H812.93V595.543H804.479V566.178Z" fill="white"/>
</mask>
<g mask="url(#mask21_48_295)">
<path d="M805.16 602.877L805.216 566.61H812.339L812.283 602.877H805.16Z" fill="#917F63"/>
</g>
<mask id="mask22_48_295" style="mask-type:luminance" maskUnits="userSpaceOnUse" x="856" y="566" width="8" height="30">
<path d="M856.027 566.178H863.633V595.543H856.027V566.178Z" fill="white"/>
</mask>
<g mask="url(#mask22_48_295)">
<path d="M856.027 602.877L856.08 566.61H863.204L863.147 602.877H856.027Z" fill="#917F63"/>
</g>
<path d="M528.214 525.183H936.527V531.079H528.214V525.183Z" fill="#917F63"/>
<mask id="mask23_48_295" style="mask-type:luminance" maskUnits="userSpaceOnUse" x="83" y="425" width="317" height="171">
<path d="M83.6582 425.9H399.704V595.542H83.6582V425.9Z" fill="white"/>
</mask>
<g mask="url(#mask23_48_295)">
<path fill-rule="evenodd" clip-rule="evenodd" d="M84.2075 481.331L214.671 426.205L399.603 515.552V600.997H84.2075V481.331Z" fill="#FFDFB1"/>
</g>
<mask id="mask24_48_295" style="mask-type:luminance" maskUnits="userSpaceOnUse" x="398" y="489" width="163" height="107">
<path d="M398.861 489.279H560.264V595.543H398.861V489.279Z" fill="white"/>
</mask>
<g mask="url(#mask24_48_295)">
<path fill-rule="evenodd" clip-rule="evenodd" d="M559.732 545.026L493.476 489.927L399.604 515.552V600.997H559.732V545.026Z" fill="#E7D4B6"/>
</g>
<mask id="mask25_48_295" style="mask-type:luminance" maskUnits="userSpaceOnUse" x="32" y="496" width="221" height="100">
<path d="M32.9563 496.884H252.667V595.543H32.9563V496.884Z" fill="white"/>
</mask>
<g mask="url(#mask25_48_295)">
<path fill-rule="evenodd" clip-rule="evenodd" d="M33.095 497.241L252.301 600.996H33.095V497.241Z" fill="#E7D4B6"/>
</g>
<mask id="mask26_48_295" style="mask-type:luminance" maskUnits="userSpaceOnUse" x="0" y="551" width="85" height="45">
<path d="M0 551.813H84.5042V595.544H0V551.813Z" fill="white"/>
</mask>
<g mask="url(#mask26_48_295)">
<path fill-rule="evenodd" clip-rule="evenodd" d="M5.23241 552.121H79.1042C79.4343 552.121 79.7611 552.154 80.0846 552.216C80.4081 552.279 80.7217 552.375 81.0254 552.5C81.3324 552.622 81.6228 552.777 81.8968 552.959C82.1741 553.141 82.4283 553.349 82.6626 553.58C82.897 553.811 83.1083 554.062 83.2964 554.332C83.4813 554.606 83.6397 554.893 83.7685 555.197C83.9005 555.501 83.9995 555.814 84.0688 556.135C84.1349 556.458 84.1745 556.785 84.1778 557.115V600.915H0.12915V557.115C0.132451 556.782 0.16546 556.451 0.234781 556.121C0.300799 555.795 0.396527 555.478 0.528565 555.171C0.657302 554.864 0.812446 554.57 1.0006 554.293C1.18545 554.015 1.39671 553.758 1.63438 553.524C1.87205 553.289 2.12952 553.078 2.4068 552.893C2.68408 552.708 2.97787 552.553 3.28815 552.424C3.59514 552.299 3.91533 552.2 4.24213 552.137C4.56892 552.071 4.89901 552.038 5.23241 552.038V552.121Z" fill="#CDBA9C"/>
</g>
<path d="M399.603 545.952H559.732V551.844H399.603V545.952Z" fill="#917F63"/>
<path d="M128.522 513.613H333.838V530.97H128.522V513.613Z" fill="#917F63"/>
</svg>
