<svg width="1108" height="548" viewBox="0 0 1108 548" fill="none" xmlns="http://www.w3.org/2000/svg">
<path fill-rule="evenodd" clip-rule="evenodd" d="M140.385 116.719C141.047 116.719 141.715 116.738 142.377 116.774C143.044 116.806 143.706 116.856 144.363 116.929C145.025 116.997 145.681 117.084 146.338 117.184C146.989 117.289 147.64 117.407 148.285 117.544C148.931 117.68 149.565 117.835 150.199 118.003C150.833 118.172 151.457 118.359 152.074 118.559C152.692 118.759 153.304 118.978 153.905 119.215C154.506 119.447 155.101 119.693 155.679 119.957C156.264 120.221 156.837 120.503 157.393 120.794C157.955 121.09 158.506 121.395 159.04 121.719C159.58 122.042 160.103 122.379 160.614 122.725C161.121 123.075 161.622 123.435 162.106 123.813C162.584 124.186 163.051 124.573 163.508 124.974C163.958 125.37 164.398 125.784 164.821 126.203C165.238 126.627 165.644 127.059 166.034 127.501C166.417 127.943 166.79 128.398 167.141 128.858C167.497 129.318 167.831 129.791 168.148 130.269C168.465 130.747 168.76 131.234 169.038 131.731C169.316 132.222 169.578 132.723 169.817 133.233C170.056 133.743 170.279 134.253 170.479 134.772C170.679 135.296 170.857 135.819 171.019 136.347C171.174 136.875 171.314 137.408 171.436 137.945C171.553 138.478 171.653 139.015 171.725 139.557C171.803 140.099 171.859 140.641 171.898 141.187C171.931 141.729 171.942 142.275 171.937 142.817C171.931 143.363 171.903 143.905 171.853 144.452C171.803 144.993 171.731 145.535 171.642 146.072C171.553 146.614 171.441 147.151 171.308 147.684C171.174 148.217 171.019 148.745 170.846 149.273C170.674 149.797 170.479 150.32 170.268 150.835C170.051 151.349 169.817 151.859 169.567 152.365C169.311 152.865 169.038 153.362 168.749 153.853C168.459 154.345 168.148 154.823 167.819 155.297C167.491 155.77 167.141 156.235 166.779 156.69C166.412 157.145 166.034 157.591 165.633 158.028C165.232 158.466 164.815 158.889 164.387 159.303C163.953 159.718 163.508 160.118 163.04 160.51C162.578 160.901 162.1 161.279 161.61 161.648C161.115 162.012 160.609 162.367 160.091 162.709C159.569 163.046 159.034 163.374 158.489 163.688C157.944 163.997 157.388 164.298 156.82 164.58C156.253 164.867 155.674 165.136 155.084 165.386C154.494 165.641 153.899 165.878 153.293 166.101C152.686 166.324 152.069 166.533 151.445 166.725C150.822 166.916 150.194 167.089 149.554 167.248C148.92 167.408 148.274 167.549 147.629 167.672C146.978 167.799 146.327 167.904 145.67 167.999C145.014 168.09 144.357 168.163 143.695 168.223C143.033 168.277 142.371 168.318 141.703 168.341C141.036 168.364 140.374 168.368 139.706 168.359C139.044 168.345 138.376 168.318 137.714 168.273C137.052 168.227 136.39 168.163 135.734 168.081C135.071 168.004 134.42 167.904 133.77 167.79C133.119 167.676 132.468 167.549 131.828 167.398C131.188 167.253 130.554 167.089 129.925 166.907C129.296 166.729 128.679 166.533 128.067 166.319C127.449 166.105 126.848 165.878 126.253 165.636C125.658 165.391 125.073 165.131 124.495 164.858C123.922 164.585 123.354 164.298 122.803 163.993C122.253 163.688 121.707 163.374 121.179 163.041C120.65 162.709 120.138 162.367 119.638 162.008C119.131 161.648 118.647 161.279 118.174 160.897C117.701 160.514 117.24 160.118 116.8 159.713C116.355 159.303 115.932 158.889 115.521 158.456C117.518 159.895 119.76 160.997 122.247 161.766C124.728 162.54 127.304 162.927 129.964 162.937C142.716 162.937 153.07 153.808 153.07 142.544C153.07 131.275 142.716 122.147 129.964 122.147C127.31 122.142 124.74 122.52 122.253 123.28C119.771 124.036 117.523 125.129 115.521 126.549C116.995 125.006 118.664 123.617 120.528 122.383C122.392 121.15 124.4 120.107 126.553 119.246C128.707 118.39 130.949 117.739 133.285 117.302C135.622 116.861 137.987 116.642 140.385 116.642V116.719Z" fill="white"/>
<mask id="mask0_8_1985" style="mask-type:luminance" maskUnits="userSpaceOnUse" x="632" y="245" width="476" height="321">
<path d="M632.646 245.755H1108V565.104H632.646V245.755Z" fill="white"/>
</mask>
<g mask="url(#mask0_8_1985)">
<path fill-rule="evenodd" clip-rule="evenodd" d="M633.815 246.738V328.55L671.665 340.648V565.104H1107.17C1107.17 565.104 1091.82 404.826 1086.37 369.969C1080.92 335.111 1045.84 307.493 989.504 290.401C895.572 261.954 736.572 246.738 633.815 246.738Z" fill="#FFDFB1"/>
</g>
<path fill-rule="evenodd" clip-rule="evenodd" d="M1067.77 404.899C1073.17 404.899 1078.97 413.745 1079.5 427.054L1080.94 463.914C1074.49 462.594 1068.02 461.31 1061.57 460.135V412.953C1061.57 408.532 1063.61 404.899 1067.77 404.899Z" fill="#917F63"/>
<path fill-rule="evenodd" clip-rule="evenodd" d="M1045.42 407.663L1048.84 457.641C1040.05 455.988 1031.26 454.404 1022.47 452.878V401.69C1022.47 387.32 1044.25 390.157 1045.42 407.663Z" fill="#917F63"/>
<path fill-rule="evenodd" clip-rule="evenodd" d="M1004.8 404.785V449.891C994.633 448.216 984.474 446.622 974.32 445.106V395.224C974.32 372.691 1004.8 380.381 1004.8 404.785Z" fill="#917F63"/>
<path fill-rule="evenodd" clip-rule="evenodd" d="M956.645 406.679V442.593C942.135 440.567 927.63 438.673 913.131 436.925V387.775C913.131 361.651 956.645 363.199 956.645 406.679Z" fill="#917F63"/>
<path fill-rule="evenodd" clip-rule="evenodd" d="M886.792 384.561V434.011C870.357 432.299 853.916 430.792 837.481 429.495V378.665C837.481 352.199 886.792 358.059 886.792 384.561Z" fill="#917F63"/>
<path fill-rule="evenodd" clip-rule="evenodd" d="M778.605 351.971C779.562 351.975 780.514 352.016 781.465 352.094C782.417 352.171 783.362 352.289 784.303 352.444C785.243 352.599 786.167 352.79 787.085 353.018C787.997 353.246 788.898 353.514 789.783 353.815C790.662 354.115 791.53 354.452 792.37 354.821C793.216 355.19 794.034 355.595 794.829 356.027C795.625 356.464 796.393 356.929 797.133 357.43C797.867 357.926 798.579 358.45 799.252 359.005C799.931 359.556 800.571 360.139 801.177 360.744C801.784 361.35 802.357 361.974 802.885 362.625C803.42 363.276 803.909 363.95 804.36 364.637C804.816 365.329 805.222 366.035 805.589 366.759C805.957 367.483 806.279 368.216 806.558 368.967C806.841 369.714 807.075 370.474 807.259 371.239C807.448 372.008 807.592 372.782 807.687 373.561C807.782 374.339 807.832 375.118 807.832 375.901V427.377C788.331 426.116 768.83 425.164 749.329 424.522V375.901C749.329 375.118 749.379 374.339 749.474 373.561C749.568 372.778 749.713 372.004 749.902 371.239C750.086 370.469 750.325 369.714 750.603 368.962C750.881 368.211 751.204 367.478 751.571 366.754C751.938 366.03 752.35 365.325 752.801 364.632C753.252 363.94 753.747 363.271 754.275 362.62C754.809 361.969 755.382 361.341 755.989 360.735C756.595 360.13 757.235 359.551 757.914 358.996C758.593 358.445 759.299 357.917 760.039 357.421C760.779 356.924 761.547 356.455 762.343 356.023C763.138 355.586 763.962 355.185 764.802 354.812C765.648 354.443 766.51 354.111 767.395 353.81C768.279 353.51 769.18 353.241 770.098 353.013C771.011 352.786 771.94 352.594 772.88 352.44C773.815 352.285 774.761 352.171 775.712 352.094C776.669 352.012 777.621 351.975 778.578 351.971H778.605Z" fill="#917F63"/>
<mask id="mask1_8_1985" style="mask-type:luminance" maskUnits="userSpaceOnUse" x="1068" y="502" width="29" height="64">
<path d="M1068.49 502.178H1096.97V565.104H1068.49V502.178Z" fill="white"/>
</mask>
<g mask="url(#mask1_8_1985)">
<path fill-rule="evenodd" clip-rule="evenodd" d="M1094.02 520.968L1096.03 565.163H1068.94V519.265C1068.94 496.732 1092.84 496.582 1093.92 520.968H1094.02Z" fill="#917F63"/>
</g>
<mask id="mask2_8_1985" style="mask-type:luminance" maskUnits="userSpaceOnUse" x="1018" y="495" width="38" height="71">
<path d="M1018.64 495.184H1055.67V565.103H1018.64V495.184Z" fill="white"/>
</mask>
<g mask="url(#mask2_8_1985)">
<path fill-rule="evenodd" clip-rule="evenodd" d="M1051.89 516.315L1054.59 565.104H1018.92V514.466C1018.92 489.889 1050.44 489.889 1051.89 516.356V516.315Z" fill="#917F63"/>
</g>
<mask id="mask3_8_1985" style="mask-type:luminance" maskUnits="userSpaceOnUse" x="961" y="491" width="45" height="75">
<path d="M961.663 491.688H1005.82V565.104H961.663V491.688Z" fill="white"/>
</mask>
<g mask="url(#mask3_8_1985)">
<path fill-rule="evenodd" clip-rule="evenodd" d="M1001.22 513.35L1004.41 565.103H962.653V511.401C962.653 485.618 999.624 485.445 1001.33 513.291L1001.22 513.35Z" fill="#917F63"/>
</g>
<mask id="mask4_8_1985" style="mask-type:luminance" maskUnits="userSpaceOnUse" x="893" y="489" width="55" height="77">
<path d="M893.296 489.356H947.42V565.104H893.296V489.356Z" fill="white"/>
</mask>
<g mask="url(#mask4_8_1985)">
<path fill-rule="evenodd" clip-rule="evenodd" d="M942.597 511.384L946.708 565.104H894.443V509.435C894.443 483.651 940.471 483.483 942.597 511.324V511.384Z" fill="#917F63"/>
</g>
<mask id="mask5_8_1985" style="mask-type:luminance" maskUnits="userSpaceOnUse" x="823" y="485" width="54" height="81">
<path d="M823.505 485.86H876.204V565.104H823.505V485.86Z" fill="white"/>
</mask>
<g mask="url(#mask5_8_1985)">
<path fill-rule="evenodd" clip-rule="evenodd" d="M872.092 508.68L876.182 565.104H824.011V506.508C824.011 479.19 870.039 479.022 872.165 508.548L872.092 508.68Z" fill="#917F63"/>
</g>
<path fill-rule="evenodd" clip-rule="evenodd" d="M757.53 270.705L780.709 271.994V299.457L757.53 298.155V270.705Z" fill="#917F63"/>
<path fill-rule="evenodd" clip-rule="evenodd" d="M880.85 286.964L896.612 288.248V315.716L880.85 314.409V286.964Z" fill="#917F63"/>
<path fill-rule="evenodd" clip-rule="evenodd" d="M970.487 307.361L985.437 310.48V341.008L970.487 337.907V307.361Z" fill="#917F63"/>
<path fill-rule="evenodd" clip-rule="evenodd" d="M1031.53 324.184L1043.64 329.288V349.266L1031.53 344.162V324.184Z" fill="#917F63"/>
<path fill-rule="evenodd" clip-rule="evenodd" d="M458.201 278.796H686.52V316.303H458.201V278.796Z" fill="#CDBA9C"/>
<path fill-rule="evenodd" clip-rule="evenodd" d="M726.957 415.657H784.725V454.863H534.268V415.657H458.201V320.214H690.82L726.957 415.657ZM534.313 340.42C535.231 340.424 536.143 340.461 537.05 340.538C537.963 340.616 538.864 340.725 539.76 340.875C540.661 341.021 541.546 341.203 542.419 341.422C543.293 341.64 544.155 341.895 545.001 342.182C545.847 342.469 546.67 342.792 547.477 343.143C548.283 343.498 549.068 343.885 549.825 344.299C550.587 344.718 551.321 345.16 552.028 345.638C552.734 346.111 553.413 346.612 554.059 347.145C554.704 347.673 555.316 348.224 555.9 348.802C556.479 349.385 557.024 349.981 557.536 350.605C558.042 351.229 558.515 351.866 558.944 352.526C559.377 353.186 559.767 353.86 560.123 354.552C560.474 355.244 560.78 355.945 561.047 356.665C561.314 357.38 561.542 358.104 561.72 358.837C561.903 359.57 562.037 360.312 562.132 361.054C562.221 361.801 562.271 362.547 562.276 363.294V398.757H506.355V363.294C506.355 362.547 506.405 361.801 506.494 361.054C506.589 360.312 506.728 359.57 506.906 358.837C507.09 358.104 507.312 357.38 507.579 356.665C507.846 355.945 508.158 355.244 508.508 354.552C508.859 353.86 509.248 353.186 509.682 352.526C510.116 351.866 510.584 351.229 511.095 350.605C511.602 349.981 512.147 349.385 512.731 348.802C513.31 348.224 513.922 347.673 514.573 347.145C515.218 346.612 515.891 346.111 516.604 345.638C517.31 345.16 518.039 344.718 518.801 344.299C519.563 343.885 520.348 343.498 521.149 343.143C521.956 342.792 522.785 342.469 523.631 342.182C524.471 341.895 525.333 341.64 526.207 341.422C527.08 341.203 527.97 341.021 528.866 340.875C529.762 340.725 530.669 340.616 531.576 340.538C532.488 340.461 533.4 340.424 534.313 340.42ZM623.716 333.977C624.851 333.977 625.981 334.023 627.11 334.114C628.245 334.205 629.364 334.337 630.476 334.519C631.589 334.701 632.691 334.924 633.776 335.198C634.861 335.466 635.929 335.78 636.98 336.136C638.026 336.491 639.056 336.887 640.057 337.324C641.053 337.761 642.027 338.239 642.972 338.753C643.918 339.268 644.825 339.823 645.704 340.411C646.583 341.003 647.423 341.622 648.225 342.282C649.026 342.938 649.788 343.625 650.506 344.34C651.229 345.059 651.902 345.806 652.536 346.575C653.165 347.349 653.749 348.146 654.283 348.966C654.818 349.781 655.302 350.623 655.736 351.479C656.17 352.335 656.553 353.209 656.882 354.097C657.216 354.989 657.488 355.886 657.711 356.797C657.933 357.707 658.1 358.627 658.211 359.551C658.323 360.476 658.378 361.4 658.378 362.329V400.951H589.054V362.292C589.054 361.363 589.11 360.439 589.221 359.515C589.333 358.591 589.499 357.671 589.722 356.76C589.945 355.85 590.217 354.948 590.545 354.061C590.879 353.173 591.258 352.299 591.692 351.443C592.126 350.582 592.61 349.744 593.149 348.925C593.683 348.105 594.268 347.313 594.896 346.539C595.525 345.765 596.204 345.023 596.921 344.304C597.645 343.584 598.401 342.901 599.208 342.241C600.009 341.585 600.849 340.962 601.729 340.374C602.602 339.782 603.514 339.232 604.46 338.717C605.401 338.198 606.374 337.725 607.376 337.287C608.377 336.846 609.401 336.45 610.452 336.095C611.498 335.739 612.567 335.43 613.652 335.157C614.742 334.888 615.838 334.665 616.951 334.483C618.069 334.301 619.188 334.164 620.317 334.073C621.446 333.982 622.581 333.936 623.716 333.936V333.977Z" fill="#CDBA9C"/>
<path fill-rule="evenodd" clip-rule="evenodd" d="M558.833 462.649H784.52C785.149 462.649 785.755 462.549 786.34 462.348C786.918 462.153 787.43 461.87 787.881 461.506C788.326 461.142 788.671 460.718 788.91 460.245C789.155 459.767 789.277 459.271 789.277 458.756C789.277 458.242 789.155 457.745 788.91 457.267C788.671 456.794 788.326 456.375 787.881 456.006C787.43 455.642 786.918 455.364 786.34 455.164C785.755 454.963 785.149 454.863 784.52 454.863H558.833C558.199 454.863 557.593 454.963 557.014 455.164C556.43 455.364 555.918 455.642 555.473 456.006C555.028 456.375 554.683 456.794 554.438 457.267C554.199 457.745 554.076 458.242 554.071 458.756C554.076 459.271 554.199 459.767 554.438 460.245C554.683 460.718 555.028 461.142 555.473 461.506C555.918 461.87 556.43 462.153 557.014 462.348C557.593 462.549 558.199 462.649 558.833 462.649Z" fill="#917F63"/>
<mask id="mask6_8_1985" style="mask-type:luminance" maskUnits="userSpaceOnUse" x="534" y="462" width="296" height="104">
<path d="M534.369 462.549H829.201V565.104H534.369V462.549Z" fill="white"/>
</mask>
<g mask="url(#mask6_8_1985)">
<path fill-rule="evenodd" clip-rule="evenodd" d="M535.17 462.649H780.108L782.762 473.18L789.466 480.742L787.591 486.411L828.262 565.104H756.629V503.443C756.623 502.597 756.573 501.75 756.467 500.907C756.362 500.065 756.212 499.227 756.006 498.399C755.8 497.57 755.549 496.746 755.243 495.936C754.943 495.13 754.593 494.333 754.197 493.55C753.797 492.767 753.357 492.002 752.868 491.255C752.378 490.508 751.844 489.785 751.271 489.079C750.692 488.373 750.08 487.695 749.424 487.039C748.762 486.388 748.072 485.76 747.337 485.159C746.603 484.562 745.841 483.993 745.04 483.456C744.238 482.914 743.409 482.413 742.547 481.94C741.69 481.471 740.8 481.034 739.893 480.633C738.981 480.232 738.046 479.868 737.089 479.545C736.132 479.217 735.158 478.93 734.168 478.684C733.178 478.434 732.176 478.229 731.164 478.061C730.146 477.892 729.122 477.765 728.092 477.678C727.063 477.592 726.028 477.551 724.994 477.546C723.959 477.551 722.924 477.592 721.895 477.678C720.865 477.765 719.842 477.892 718.829 478.061C717.811 478.229 716.809 478.434 715.819 478.684C714.829 478.93 713.855 479.217 712.898 479.54C711.941 479.868 711.006 480.232 710.094 480.633C709.181 481.034 708.297 481.466 707.434 481.94C706.572 482.409 705.743 482.914 704.942 483.451C704.141 483.993 703.378 484.558 702.644 485.159C701.91 485.76 701.214 486.383 700.558 487.039C699.901 487.695 699.284 488.373 698.71 489.079C698.132 489.78 697.598 490.508 697.108 491.255C696.619 492.002 696.179 492.767 695.778 493.55C695.378 494.328 695.027 495.125 694.727 495.936C694.426 496.746 694.17 497.566 693.965 498.399C693.759 499.227 693.603 500.065 693.503 500.907C693.397 501.75 693.341 502.597 693.336 503.443V565.104H657.8V503.443C657.795 502.597 657.745 501.75 657.639 500.907C657.533 500.065 657.378 499.227 657.177 498.399C656.971 497.566 656.715 496.746 656.415 495.936C656.115 495.125 655.764 494.328 655.364 493.545C654.968 492.762 654.523 491.997 654.034 491.251C653.544 490.504 653.01 489.78 652.437 489.074C651.858 488.369 651.241 487.69 650.584 487.035C649.928 486.379 649.232 485.751 648.498 485.154C647.769 484.553 647.001 483.984 646.2 483.447C645.399 482.91 644.57 482.404 643.708 481.935C642.845 481.462 641.961 481.025 641.048 480.624C640.136 480.228 639.201 479.864 638.244 479.536C637.287 479.213 636.313 478.926 635.323 478.68C634.333 478.429 633.326 478.225 632.313 478.056C631.295 477.888 630.271 477.765 629.242 477.678C628.213 477.592 627.178 477.551 626.143 477.546C625.108 477.551 624.073 477.592 623.044 477.678C622.015 477.765 620.991 477.892 619.978 478.061C618.96 478.229 617.959 478.434 616.968 478.684C615.978 478.93 615.004 479.217 614.047 479.545C613.096 479.868 612.161 480.232 611.249 480.633C610.336 481.034 609.446 481.471 608.589 481.94C607.727 482.413 606.898 482.919 606.097 483.456C605.296 483.993 604.533 484.562 603.799 485.159C603.07 485.76 602.375 486.388 601.718 487.039C601.062 487.695 600.444 488.373 599.865 489.079C599.292 489.785 598.758 490.508 598.269 491.255C597.779 492.002 597.339 492.767 596.939 493.55C596.544 494.333 596.193 495.13 595.893 495.936C595.587 496.746 595.337 497.57 595.131 498.399C594.925 499.227 594.775 500.065 594.669 500.907C594.563 501.75 594.513 502.597 594.508 503.443V565.104H535.17V462.649Z" fill="#CDBA9C"/>
</g>
<path fill-rule="evenodd" clip-rule="evenodd" d="M462.958 324.107H688.623C689.257 324.107 689.863 324.011 690.448 323.811C691.026 323.615 691.544 323.333 691.989 322.969C692.434 322.605 692.779 322.181 693.024 321.703C693.263 321.225 693.385 320.729 693.385 320.214C693.385 319.695 693.263 319.199 693.024 318.721C692.779 318.243 692.439 317.819 691.989 317.455C691.544 317.086 691.032 316.804 690.448 316.604C689.863 316.403 689.257 316.303 688.623 316.303H462.958C462.324 316.303 461.717 316.403 461.133 316.604C460.555 316.804 460.037 317.086 459.592 317.455C459.147 317.819 458.802 318.243 458.563 318.721C458.318 319.199 458.201 319.695 458.201 320.214C458.201 320.729 458.318 321.225 458.563 321.703C458.802 322.181 459.147 322.605 459.592 322.969C460.037 323.333 460.555 323.615 461.139 323.811C461.723 324.011 462.329 324.107 462.958 324.107Z" fill="#917F63"/>
<mask id="mask7_8_1985" style="mask-type:luminance" maskUnits="userSpaceOnUse" x="0" y="7" width="627" height="559">
<path d="M0.251953 7.98145H626.95V565.104H0.251953V7.98145Z" fill="white"/>
</mask>
<g mask="url(#mask7_8_1985)">
<path fill-rule="evenodd" clip-rule="evenodd" d="M57.87 163.865L44.951 273.146L33.0502 283.713L30.9026 365.825L17.4996 378.114L13.7329 475.105L0.446777 565.104L626.143 564.462L574.451 433.428V394.181H507.024L470.654 304.392V268.096L420.28 262.542L390.959 182.901L384.833 177.893L389.779 161.065L382.341 151.427V109.312L359.557 112.581L314.079 24.1125L291.274 8.12256C291.274 8.12256 175.899 38.4589 121.758 90.0302C67.6176 141.597 57.87 163.865 57.87 163.865ZM182.648 217.322C192.49 217.322 197.458 229.952 197.458 244.489V280.253C185.257 283.203 173.334 286.395 161.689 289.837V254.41C161.689 239.877 172.828 217.322 182.648 217.322ZM246.213 199.911C258.993 199.911 265.441 212.277 265.441 226.51V266.434C249.618 269.08 234.129 272.03 218.973 275.281V230.516C218.973 216.284 233.439 199.97 246.213 199.97V199.911ZM322.998 183.015C338.621 183.015 351.401 194.657 351.401 208.894V254.979C332.15 257.001 313.178 259.309 294.601 261.973V208.894C294.601 194.657 307.381 183.015 322.998 183.015Z" fill="#FFDFB1"/>
</g>
<mask id="mask8_8_1985" style="mask-type:luminance" maskUnits="userSpaceOnUse" x="33" y="492" width="29" height="74">
<path d="M33.0107 492.854H61.497V565.104H33.0107V492.854Z" fill="white"/>
</mask>
<g mask="url(#mask8_8_1985)">
<path fill-rule="evenodd" clip-rule="evenodd" d="M47.6098 493.614C48.4888 493.623 49.3568 493.7 50.2192 493.846C51.076 493.992 51.9105 494.201 52.7228 494.483C53.5296 494.761 54.3029 495.103 55.0318 495.503C55.7606 495.908 56.4338 496.364 57.0514 496.874C57.6745 497.384 58.2253 497.935 58.715 498.536C59.2046 499.132 59.6163 499.765 59.9501 500.43C60.2895 501.09 60.5454 501.777 60.7179 502.478C60.8959 503.184 60.985 503.899 60.985 504.614V565.104H34.0454V504.614C34.051 503.89 34.14 503.17 34.318 502.46C34.4961 501.75 34.752 501.062 35.097 500.393C35.4419 499.724 35.8592 499.091 36.3544 498.485C36.8495 497.884 37.417 497.329 38.0457 496.819C38.6744 496.309 39.3588 495.854 40.0987 495.453C40.8387 495.053 41.6176 494.716 42.4355 494.438C43.2589 494.165 44.1046 493.96 44.9726 493.819C45.8405 493.682 46.7196 493.614 47.6098 493.614Z" fill="#917F63"/>
</g>
<mask id="mask9_8_1985" style="mask-type:luminance" maskUnits="userSpaceOnUse" x="81" y="487" width="29" height="79">
<path d="M81.438 487.026H109.924V565.105H81.438V487.026Z" fill="white"/>
</mask>
<g mask="url(#mask9_8_1985)">
<path fill-rule="evenodd" clip-rule="evenodd" d="M95.3248 487.604C96.2094 487.604 97.0829 487.676 97.9508 487.822C98.8132 487.963 99.6589 488.173 100.471 488.45C101.289 488.728 102.062 489.07 102.797 489.47C103.531 489.875 104.21 490.331 104.839 490.841C105.462 491.351 106.018 491.911 106.513 492.512C107.003 493.108 107.42 493.745 107.76 494.41C108.099 495.079 108.355 495.767 108.527 496.477C108.706 497.183 108.795 497.902 108.795 498.622V565.104H81.855V498.603C81.855 497.88 81.944 497.165 82.122 496.459C82.2945 495.749 82.5504 495.061 82.8898 494.397C83.2292 493.727 83.6465 493.094 84.1361 492.493C84.6313 491.897 85.1876 491.341 85.8164 490.832C86.4395 490.317 87.1183 489.862 87.8527 489.461C88.5871 489.06 89.3604 488.724 90.1783 488.446C90.9962 488.168 91.8363 487.959 92.6987 487.818C93.5666 487.676 94.4401 487.604 95.3248 487.604Z" fill="#917F63"/>
</g>
<mask id="mask10_8_1985" style="mask-type:luminance" maskUnits="userSpaceOnUse" x="131" y="482" width="35" height="84">
<path d="M131.289 482.363H165.472V565.104H131.289V482.363Z" fill="white"/>
</mask>
<g mask="url(#mask10_8_1985)">
<path fill-rule="evenodd" clip-rule="evenodd" d="M148.191 482.596C149.287 482.596 150.366 482.687 151.44 482.86C152.514 483.038 153.554 483.297 154.561 483.643C155.574 483.985 156.531 484.404 157.437 484.905C158.344 485.401 159.19 485.965 159.958 486.598C160.731 487.231 161.421 487.919 162.033 488.661C162.639 489.403 163.151 490.186 163.574 491.015C163.991 491.839 164.309 492.69 164.526 493.569C164.743 494.443 164.848 495.331 164.854 496.223V565.105H131.533V496.223C131.538 495.331 131.644 494.443 131.861 493.569C132.078 492.69 132.395 491.839 132.812 491.015C133.235 490.186 133.747 489.403 134.354 488.661C134.96 487.919 135.655 487.231 136.429 486.598C137.197 485.965 138.042 485.401 138.949 484.905C139.856 484.404 140.813 483.985 141.826 483.643C142.833 483.297 143.873 483.038 144.947 482.86C146.015 482.687 147.1 482.596 148.191 482.596Z" fill="#917F63"/>
</g>
<mask id="mask11_8_1985" style="mask-type:luminance" maskUnits="userSpaceOnUse" x="189" y="473" width="50" height="93">
<path d="M189.686 473.039H238.112V565.104H189.686V473.039Z" fill="white"/>
</mask>
<g mask="url(#mask11_8_1985)">
<path fill-rule="evenodd" clip-rule="evenodd" d="M213.982 473.636C214.761 473.636 215.54 473.668 216.313 473.731C217.092 473.795 217.86 473.891 218.628 474.018C219.39 474.146 220.146 474.3 220.892 474.487C221.638 474.674 222.372 474.888 223.09 475.134C223.813 475.38 224.514 475.653 225.204 475.953C225.888 476.258 226.556 476.586 227.207 476.941C227.852 477.296 228.481 477.674 229.082 478.079C229.683 478.485 230.261 478.913 230.812 479.363C231.363 479.819 231.886 480.288 232.381 480.784C232.876 481.276 233.344 481.79 233.778 482.318C234.206 482.851 234.607 483.397 234.979 483.957C235.347 484.522 235.68 485.096 235.975 485.687C236.276 486.275 236.537 486.876 236.765 487.486C236.993 488.096 237.183 488.715 237.338 489.339C237.489 489.967 237.605 490.596 237.683 491.233C237.761 491.866 237.8 492.503 237.806 493.141V565.105H190.108V493.141C190.113 492.503 190.152 491.866 190.23 491.228C190.308 490.596 190.425 489.963 190.581 489.339C190.737 488.711 190.926 488.091 191.154 487.481C191.382 486.871 191.643 486.27 191.944 485.683C192.244 485.091 192.578 484.513 192.951 483.953C193.318 483.388 193.719 482.842 194.153 482.309C194.587 481.781 195.054 481.266 195.549 480.775C196.044 480.283 196.573 479.81 197.124 479.359C197.675 478.908 198.253 478.476 198.86 478.07C199.461 477.665 200.089 477.287 200.735 476.932C201.386 476.577 202.053 476.249 202.743 475.949C203.433 475.648 204.134 475.375 204.857 475.129C205.581 474.883 206.315 474.669 207.061 474.483C207.806 474.296 208.563 474.141 209.331 474.014C210.093 473.891 210.866 473.795 211.645 473.731C212.418 473.668 213.197 473.636 213.982 473.636Z" fill="#917F63"/>
</g>
<mask id="mask12_8_1985" style="mask-type:luminance" maskUnits="userSpaceOnUse" x="262" y="469" width="59" height="97">
<path d="M262.325 469.542H320.722V565.103H262.325V469.542Z" fill="white"/>
</mask>
<g mask="url(#mask12_8_1985)">
<path fill-rule="evenodd" clip-rule="evenodd" d="M291.251 470.248C292.175 470.252 293.093 470.293 294.011 470.366C294.929 470.443 295.836 470.557 296.743 470.703C297.644 470.853 298.54 471.035 299.419 471.258C300.303 471.477 301.171 471.732 302.023 472.019C302.874 472.31 303.703 472.633 304.515 472.989C305.333 473.344 306.123 473.731 306.885 474.15C307.653 474.568 308.393 475.015 309.105 475.493C309.823 475.971 310.502 476.476 311.158 477.009C311.809 477.541 312.432 478.101 313.017 478.684C313.601 479.263 314.152 479.868 314.669 480.492C315.181 481.12 315.659 481.767 316.099 482.427C316.533 483.092 316.928 483.774 317.289 484.467C317.646 485.163 317.957 485.873 318.23 486.593C318.502 487.312 318.73 488.045 318.914 488.783C319.098 489.52 319.237 490.267 319.337 491.018C319.431 491.765 319.482 492.521 319.487 493.272V565.104H263.038V493.272C263.038 492.516 263.088 491.765 263.182 491.014C263.271 490.262 263.41 489.516 263.594 488.774C263.778 488.036 264 487.303 264.273 486.579C264.54 485.855 264.851 485.149 265.207 484.448C265.564 483.752 265.959 483.069 266.393 482.404C266.832 481.739 267.305 481.093 267.817 480.464C268.334 479.836 268.88 479.231 269.469 478.648C270.053 478.061 270.671 477.501 271.328 476.968C271.979 476.435 272.663 475.925 273.375 475.447C274.087 474.969 274.827 474.518 275.595 474.095C276.363 473.676 277.153 473.289 277.965 472.929C278.783 472.574 279.612 472.246 280.463 471.96C281.32 471.668 282.188 471.413 283.067 471.19C283.952 470.967 284.847 470.785 285.749 470.635C286.656 470.484 287.568 470.371 288.486 470.293C289.404 470.216 290.328 470.175 291.251 470.175V470.248Z" fill="#917F63"/>
</g>
<mask id="mask13_8_1985" style="mask-type:luminance" maskUnits="userSpaceOnUse" x="353" y="466" width="68" height="100">
<path d="M353.481 466.045H420.424V565.104H353.481V466.045Z" fill="white"/>
</mask>
<g mask="url(#mask13_8_1985)">
<path fill-rule="evenodd" clip-rule="evenodd" d="M386.796 467.17C387.864 467.17 388.927 467.215 389.984 467.302C391.047 467.393 392.098 467.521 393.144 467.694C394.185 467.867 395.22 468.076 396.238 468.331C397.256 468.586 398.257 468.882 399.242 469.214C400.227 469.551 401.19 469.924 402.124 470.334C403.065 470.749 403.977 471.195 404.862 471.682C405.752 472.165 406.603 472.684 407.427 473.239C408.25 473.79 409.04 474.377 409.791 474.992C410.548 475.607 411.26 476.253 411.939 476.927C412.612 477.601 413.246 478.297 413.841 479.021C414.431 479.75 414.982 480.492 415.483 481.261C415.989 482.031 416.445 482.818 416.851 483.62C417.263 484.426 417.619 485.245 417.931 486.078C418.242 486.912 418.504 487.758 418.715 488.61C418.927 489.466 419.083 490.326 419.188 491.196C419.299 492.061 419.355 492.931 419.355 493.805V565.104H354.265V493.805C354.265 492.931 354.321 492.061 354.426 491.196C354.532 490.331 354.694 489.47 354.905 488.614C355.111 487.758 355.372 486.916 355.684 486.083C355.995 485.25 356.357 484.43 356.763 483.624C357.169 482.823 357.626 482.035 358.132 481.266C358.633 480.501 359.183 479.754 359.773 479.03C360.363 478.306 360.997 477.605 361.676 476.931C362.349 476.258 363.067 475.616 363.818 474.996C364.569 474.382 365.359 473.799 366.183 473.244C367.006 472.693 367.857 472.174 368.742 471.686C369.627 471.204 370.539 470.753 371.479 470.343C372.414 469.929 373.377 469.556 374.361 469.223C375.341 468.886 376.342 468.59 377.36 468.335C378.378 468.081 379.413 467.867 380.454 467.694C381.5 467.525 382.551 467.393 383.608 467.307C384.671 467.215 385.734 467.17 386.796 467.17Z" fill="#917F63"/>
</g>
<mask id="mask14_8_1985" style="mask-type:luminance" maskUnits="userSpaceOnUse" x="464" y="463" width="71" height="103">
<path d="M464.577 463.714H534.368V565.104H464.577V463.714Z" fill="white"/>
</mask>
<g mask="url(#mask14_8_1985)">
<path fill-rule="evenodd" clip-rule="evenodd" d="M499.651 464.52C500.786 464.52 501.921 464.565 503.05 464.656C504.18 464.747 505.304 464.884 506.417 465.066C507.529 465.248 508.631 465.471 509.716 465.745C510.801 466.013 511.869 466.323 512.915 466.678C513.967 467.033 514.99 467.434 515.992 467.871C516.993 468.308 517.967 468.786 518.907 469.3C519.853 469.815 520.765 470.37 521.644 470.958C522.518 471.545 523.358 472.169 524.159 472.824C524.966 473.485 525.728 474.172 526.446 474.887C527.164 475.606 527.842 476.353 528.471 477.122C529.105 477.896 529.684 478.693 530.224 479.508C530.758 480.328 531.242 481.165 531.676 482.026C532.11 482.882 532.494 483.756 532.822 484.644C533.15 485.536 533.428 486.433 533.645 487.344C533.868 488.254 534.035 489.174 534.146 490.098C534.257 491.023 534.313 491.947 534.313 492.876V565.104H464.995V492.839C464.995 491.91 465.05 490.982 465.162 490.057C465.273 489.133 465.434 488.218 465.657 487.307C465.879 486.397 466.157 485.495 466.486 484.607C466.814 483.72 467.198 482.845 467.632 481.99C468.066 481.129 468.55 480.291 469.084 479.472C469.618 478.652 470.202 477.855 470.837 477.086C471.465 476.312 472.138 475.57 472.862 474.85C473.579 474.131 474.342 473.444 475.143 472.788C475.95 472.132 476.79 471.509 477.663 470.921C478.542 470.329 479.455 469.778 480.395 469.264C481.341 468.745 482.314 468.271 483.316 467.83C484.317 467.393 485.341 466.997 486.387 466.641C487.439 466.286 488.507 465.972 489.592 465.704C490.677 465.435 491.778 465.212 492.891 465.03C494.004 464.848 495.128 464.711 496.257 464.62C497.387 464.529 498.516 464.483 499.651 464.483V464.52Z" fill="#917F63"/>
</g>
<path fill-rule="evenodd" clip-rule="evenodd" d="M69.6312 369.532C74.7109 369.532 78.8725 373.616 78.8725 378.606V430.214C72.6579 431.27 66.4877 432.367 60.3843 433.464V378.642C60.3843 373.652 64.5682 369.573 69.6312 369.573V369.532Z" fill="#917F63"/>
<path fill-rule="evenodd" clip-rule="evenodd" d="M108.794 355.281C109.618 355.254 110.436 355.295 111.248 355.404C112.055 355.509 112.85 355.682 113.618 355.914C114.392 356.146 115.126 356.437 115.827 356.793C116.528 357.143 117.179 357.544 117.785 357.999C118.386 358.459 118.932 358.955 119.416 359.497C119.905 360.043 120.317 360.617 120.667 361.227C121.012 361.837 121.285 362.47 121.48 363.121C121.674 363.777 121.791 364.437 121.83 365.111V423.329C113.073 424.673 104.36 426.052 95.7642 427.454V365.07C95.7975 364.401 95.9144 363.736 96.1091 363.085C96.3038 362.429 96.5765 361.796 96.9214 361.186C97.2664 360.576 97.6836 359.998 98.1677 359.456C98.6517 358.914 99.197 358.413 99.8034 357.958C100.404 357.503 101.061 357.098 101.762 356.747C102.463 356.396 103.197 356.105 103.971 355.868C104.744 355.636 105.534 355.468 106.346 355.363C107.159 355.258 107.977 355.217 108.794 355.24V355.281Z" fill="#917F63"/>
<path fill-rule="evenodd" clip-rule="evenodd" d="M161.594 345.224C170.841 345.224 178.557 349.854 178.557 355.527V415.221C167.141 416.723 155.841 418.271 144.658 419.874V358.778C144.658 353.105 152.286 345.224 161.616 345.224H161.594Z" fill="#917F63"/>
<mask id="mask15_8_1985" style="mask-type:luminance" maskUnits="userSpaceOnUse" x="166" y="351" width="14" height="70">
<path d="M166.896 351.82H179.714V420.588H166.896V351.82Z" fill="white"/>
</mask>
<g mask="url(#mask15_8_1985)">
<mask id="mask16_8_1985" style="mask-type:luminance" maskUnits="userSpaceOnUse" x="144" y="345" width="35" height="75">
<path fill-rule="evenodd" clip-rule="evenodd" d="M161.594 345.223C170.841 345.223 178.557 349.853 178.557 355.526V415.22C167.141 416.723 155.841 418.271 144.658 419.873V358.777C144.658 353.104 152.286 345.223 161.616 345.223H161.594Z" fill="white"/>
</mask>
<g mask="url(#mask16_8_1985)">
<path fill-rule="evenodd" clip-rule="evenodd" d="M184.405 352.348C193.646 352.348 201.385 356.978 201.385 362.651V422.35C189.957 423.834 178.635 425.387 167.418 426.998V365.921C167.418 360.252 175.069 352.348 184.405 352.348Z" fill="#CDBA9C"/>
</g>
</g>
<path fill-rule="evenodd" clip-rule="evenodd" d="M224.33 330.458C225.081 330.463 225.832 330.49 226.578 330.554C227.323 330.613 228.063 330.704 228.798 330.827C229.538 330.945 230.261 331.095 230.979 331.273C231.696 331.455 232.403 331.66 233.098 331.897C233.788 332.133 234.467 332.393 235.129 332.684C235.791 332.976 236.431 333.29 237.054 333.631C237.677 333.973 238.278 334.337 238.862 334.729C239.441 335.116 239.997 335.53 240.526 335.963C241.055 336.395 241.561 336.85 242.034 337.324C242.512 337.802 242.957 338.294 243.375 338.804C243.792 339.314 244.181 339.837 244.532 340.379C244.888 340.921 245.211 341.476 245.494 342.041C245.784 342.61 246.04 343.184 246.257 343.771C246.474 344.358 246.657 344.955 246.807 345.556C246.952 346.157 247.063 346.762 247.141 347.377C247.214 347.987 247.253 348.597 247.253 349.212V407.075C231.774 408.737 216.485 410.49 201.385 412.329V349.212C201.396 347.982 201.552 346.767 201.858 345.56C202.159 344.358 202.598 343.188 203.182 342.054C203.761 340.921 204.473 339.842 205.308 338.822C206.148 337.802 207.099 336.859 208.162 335.99C209.225 335.12 210.382 334.342 211.628 333.659C212.874 332.976 214.193 332.398 215.578 331.92C216.969 331.446 218.399 331.086 219.868 330.84C221.342 330.595 222.828 330.467 224.33 330.458Z" fill="#917F63"/>
<mask id="mask17_8_1985" style="mask-type:luminance" maskUnits="userSpaceOnUse" x="223" y="334" width="26" height="79">
<path d="M223.869 334.337H248.082V412.429H223.869V334.337Z" fill="white"/>
</mask>
<g mask="url(#mask17_8_1985)">
<mask id="mask18_8_1985" style="mask-type:luminance" maskUnits="userSpaceOnUse" x="201" y="330" width="47" height="83">
<path fill-rule="evenodd" clip-rule="evenodd" d="M224.33 330.458C225.838 330.463 227.323 330.585 228.798 330.827C230.272 331.068 231.708 331.423 233.098 331.897C234.484 332.37 235.802 332.948 237.054 333.631C238.306 334.314 239.463 335.093 240.526 335.963C241.589 336.832 242.54 337.779 243.375 338.804C244.215 339.823 244.921 340.902 245.494 342.041C246.073 343.179 246.507 344.349 246.807 345.556C247.102 346.762 247.253 347.982 247.253 349.212V407.075C231.774 408.737 216.485 410.49 201.385 412.329V349.212C201.408 346.73 202.008 344.345 203.182 342.054C204.356 339.764 206.014 337.743 208.162 335.99C210.309 334.232 212.78 332.88 215.578 331.92C218.382 330.963 221.298 330.476 224.33 330.458Z" fill="white"/>
</mask>
<g mask="url(#mask18_8_1985)">
<path fill-rule="evenodd" clip-rule="evenodd" d="M247.253 334.847C248.755 334.851 250.246 334.979 251.721 335.225C253.195 335.475 254.625 335.835 256.01 336.308C257.396 336.782 258.714 337.364 259.966 338.047C261.212 338.735 262.37 339.509 263.432 340.379C264.495 341.253 265.446 342.195 266.281 343.22C267.121 344.239 267.828 345.318 268.412 346.452C268.991 347.586 269.43 348.756 269.731 349.962C270.031 351.169 270.187 352.385 270.198 353.614V411.477C254.686 413.13 239.397 414.874 224.331 416.713V353.614C224.342 352.385 224.497 351.169 224.798 349.962C225.098 348.761 225.538 347.59 226.117 346.457C226.701 345.323 227.407 344.244 228.242 343.224C229.082 342.204 230.028 341.257 231.09 340.388C232.153 339.518 233.305 338.739 234.557 338.057C235.803 337.369 237.122 336.791 238.507 336.313C239.892 335.839 241.322 335.475 242.791 335.229C244.265 334.983 245.751 334.856 247.253 334.847Z" fill="#CDBA9C"/>
</g>
</g>
<path fill-rule="evenodd" clip-rule="evenodd" d="M305.461 318.57C306.351 318.57 307.242 318.607 308.132 318.68C309.016 318.757 309.895 318.862 310.769 319.007C311.648 319.149 312.51 319.331 313.362 319.54C314.213 319.754 315.053 320 315.876 320.282C316.7 320.56 317.507 320.874 318.291 321.216C319.076 321.562 319.838 321.935 320.583 322.345C321.323 322.75 322.035 323.182 322.725 323.647C323.415 324.107 324.072 324.598 324.706 325.113C325.335 325.627 325.936 326.169 326.498 326.734C327.065 327.298 327.594 327.881 328.094 328.487C328.59 329.092 329.046 329.72 329.469 330.362C329.886 331.004 330.27 331.665 330.615 332.334C330.954 333.008 331.255 333.695 331.516 334.392C331.778 335.088 331.995 335.799 332.167 336.514C332.345 337.228 332.479 337.948 332.568 338.672C332.657 339.4 332.701 340.129 332.707 340.857V399.098C314.218 400.596 296.047 402.208 278.193 403.938V340.857C278.199 340.129 278.243 339.4 278.332 338.672C278.427 337.948 278.561 337.228 278.733 336.509C278.911 335.794 279.128 335.088 279.39 334.392C279.651 333.695 279.951 333.008 280.296 332.334C280.636 331.66 281.02 331.004 281.443 330.358C281.865 329.716 282.322 329.092 282.817 328.487C283.318 327.881 283.846 327.294 284.414 326.729C284.981 326.169 285.576 325.627 286.211 325.113C286.839 324.598 287.501 324.107 288.191 323.642C288.881 323.182 289.593 322.745 290.339 322.34C291.079 321.935 291.841 321.562 292.626 321.216C293.416 320.874 294.217 320.56 295.04 320.282C295.869 320 296.704 319.754 297.561 319.54C298.412 319.331 299.274 319.149 300.148 319.007C301.021 318.862 301.906 318.752 302.791 318.68C303.681 318.607 304.571 318.57 305.461 318.57Z" fill="#917F63"/>
<mask id="mask19_8_1985" style="mask-type:luminance" maskUnits="userSpaceOnUse" x="296" y="326" width="38" height="79">
<path d="M296.509 326.179H333.541V404.271H296.509V326.179Z" fill="white"/>
</mask>
<g mask="url(#mask19_8_1985)">
<mask id="mask20_8_1985" style="mask-type:luminance" maskUnits="userSpaceOnUse" x="278" y="318" width="55" height="86">
<path fill-rule="evenodd" clip-rule="evenodd" d="M305.461 318.57C307.247 318.575 309.016 318.721 310.769 319.007C312.522 319.294 314.224 319.718 315.876 320.282C317.529 320.842 319.092 321.53 320.583 322.345C322.069 323.155 323.443 324.079 324.706 325.113C325.969 326.146 327.098 327.271 328.094 328.487C329.085 329.702 329.925 330.986 330.615 332.334C331.299 333.686 331.817 335.079 332.167 336.514C332.523 337.948 332.701 339.396 332.707 340.857V399.098C314.218 400.596 296.047 402.208 278.193 403.938V340.857C278.199 339.396 278.383 337.943 278.733 336.509C279.089 335.079 279.607 333.686 280.296 332.334C280.981 330.986 281.826 329.702 282.817 328.487C283.813 327.271 284.942 326.146 286.211 325.113C287.474 324.079 288.848 323.155 290.339 322.34C291.824 321.53 293.393 320.842 295.04 320.282C296.693 319.718 298.395 319.294 300.148 319.007C301.9 318.721 303.675 318.575 305.461 318.57Z" fill="white"/>
</mask>
<g mask="url(#mask20_8_1985)">
<path fill-rule="evenodd" clip-rule="evenodd" d="M324.249 326.925C325.14 326.925 326.03 326.966 326.914 327.039C327.805 327.112 328.684 327.217 329.557 327.362C330.431 327.508 331.299 327.686 332.15 327.895C333.001 328.109 333.841 328.355 334.665 328.637C335.488 328.915 336.295 329.229 337.079 329.571C337.864 329.917 338.632 330.29 339.372 330.695C340.112 331.105 340.829 331.537 341.519 332.002C342.209 332.462 342.866 332.953 343.5 333.468C344.129 333.982 344.73 334.524 345.297 335.089C345.859 335.649 346.393 336.236 346.888 336.842C347.383 337.447 347.845 338.071 348.268 338.717C348.685 339.359 349.069 340.015 349.414 340.689C349.754 341.363 350.06 342.05 350.321 342.747C350.577 343.443 350.8 344.149 350.972 344.868C351.15 345.583 351.284 346.303 351.373 347.027C351.462 347.755 351.512 348.484 351.512 349.212V407.453C333.029 408.951 314.858 410.568 297.004 412.293V349.248C297.004 348.52 297.048 347.791 297.137 347.063C297.226 346.339 297.354 345.615 297.532 344.9C297.705 344.186 297.922 343.475 298.183 342.779C298.439 342.078 298.74 341.395 299.085 340.716C299.424 340.042 299.808 339.382 300.225 338.74C300.648 338.094 301.104 337.47 301.6 336.864C302.095 336.254 302.629 335.672 303.191 335.102C303.758 334.538 304.359 334.001 304.988 333.482C305.617 332.967 306.279 332.475 306.969 332.011C307.658 331.547 308.371 331.114 309.116 330.704C309.856 330.299 310.618 329.926 311.403 329.58C312.193 329.234 313 328.919 313.823 328.642C314.646 328.359 315.487 328.114 316.338 327.9C317.189 327.686 318.057 327.508 318.931 327.362C319.804 327.221 320.689 327.112 321.573 327.039C322.464 326.966 323.354 326.925 324.249 326.925Z" fill="#CDBA9C"/>
</g>
</g>
<path fill-rule="evenodd" clip-rule="evenodd" d="M400.572 310.366C401.607 310.366 402.636 310.412 403.666 310.498C404.695 310.58 405.719 310.708 406.737 310.876C407.749 311.04 408.751 311.249 409.741 311.495C410.731 311.746 411.705 312.028 412.662 312.356C413.619 312.679 414.548 313.043 415.461 313.444C416.373 313.845 417.263 314.277 418.12 314.751C418.982 315.22 419.811 315.725 420.613 316.262C421.414 316.8 422.182 317.369 422.91 317.965C423.645 318.566 424.335 319.194 424.997 319.845C425.653 320.501 426.265 321.179 426.844 321.885C427.417 322.586 427.951 323.315 428.441 324.062C428.93 324.808 429.376 325.569 429.771 326.352C430.166 327.135 430.516 327.932 430.822 328.742C431.123 329.552 431.378 330.372 431.579 331.201C431.785 332.029 431.94 332.867 432.041 333.709C432.146 334.552 432.202 335.398 432.202 336.245V392.424C410.804 393.599 389.712 394.905 368.915 396.358V336.245C368.915 335.398 368.97 334.552 369.076 333.709C369.182 332.867 369.337 332.029 369.538 331.201C369.744 330.367 369.999 329.548 370.3 328.737C370.606 327.927 370.956 327.135 371.351 326.352C371.752 325.569 372.197 324.804 372.687 324.057C373.176 323.31 373.71 322.586 374.284 321.885C374.862 321.179 375.48 320.501 376.136 319.845C376.793 319.19 377.488 318.566 378.217 317.965C378.952 317.369 379.719 316.8 380.52 316.262C381.322 315.725 382.151 315.22 383.013 314.751C383.87 314.277 384.76 313.845 385.672 313.444C386.585 313.043 387.52 312.679 388.477 312.356C389.428 312.028 390.402 311.746 391.392 311.495C392.382 311.249 393.389 311.04 394.402 310.876C395.42 310.708 396.438 310.58 397.473 310.498C398.502 310.412 399.532 310.366 400.572 310.366Z" fill="#917F63"/>
<mask id="mask21_8_1985" style="mask-type:luminance" maskUnits="userSpaceOnUse" x="381" y="318" width="53" height="79">
<path d="M381.968 318.02H433.243V396.868H381.968V318.02Z" fill="white"/>
</mask>
<g mask="url(#mask21_8_1985)">
<mask id="mask22_8_1985" style="mask-type:luminance" maskUnits="userSpaceOnUse" x="368" y="310" width="65" height="87">
<path fill-rule="evenodd" clip-rule="evenodd" d="M400.572 310.366C402.647 310.371 404.7 310.539 406.737 310.876C408.768 311.209 410.743 311.705 412.662 312.356C414.576 313.007 416.395 313.804 418.12 314.751C419.845 315.693 421.442 316.768 422.91 317.965C424.379 319.167 425.687 320.474 426.844 321.885C427.996 323.297 428.975 324.785 429.771 326.352C430.566 327.918 431.173 329.534 431.579 331.201C431.99 332.867 432.196 334.547 432.202 336.245V392.424C410.804 393.599 389.712 394.905 368.915 396.358V336.245C368.92 334.547 369.132 332.862 369.538 331.201C369.949 329.534 370.556 327.918 371.351 326.352C372.153 324.785 373.126 323.292 374.284 321.885C375.441 320.474 376.754 319.167 378.217 317.965C379.686 316.768 381.283 315.693 383.013 314.751C384.738 313.804 386.557 313.007 388.477 312.356C390.391 311.705 392.366 311.209 394.402 310.876C396.438 310.539 398.491 310.371 400.572 310.366Z" fill="white"/>
</mask>
<g mask="url(#mask22_8_1985)">
<path fill-rule="evenodd" clip-rule="evenodd" d="M413.997 318.571C415.032 318.571 416.062 318.617 417.091 318.703C418.12 318.785 419.144 318.913 420.162 319.081C421.175 319.245 422.176 319.455 423.166 319.7C424.157 319.951 425.13 320.233 426.087 320.561C427.044 320.884 427.974 321.248 428.886 321.649C429.798 322.05 430.689 322.482 431.545 322.956C432.408 323.425 433.237 323.93 434.038 324.467C434.839 325.005 435.607 325.574 436.336 326.17C437.07 326.771 437.76 327.395 438.422 328.051C439.079 328.706 439.691 329.385 440.269 330.09C440.842 330.791 441.377 331.52 441.866 332.267C442.356 333.009 442.801 333.774 443.196 334.557C443.591 335.34 443.941 336.137 444.247 336.947C444.548 337.753 444.804 338.577 445.004 339.406C445.21 340.234 445.366 341.072 445.466 341.914C445.572 342.757 445.627 343.603 445.627 344.45V400.647C424.229 401.808 403.137 403.12 382.34 404.581V344.469C382.34 343.622 382.395 342.775 382.501 341.933C382.607 341.09 382.763 340.252 382.963 339.424C383.169 338.591 383.425 337.771 383.725 336.961C384.031 336.155 384.382 335.358 384.777 334.575C385.177 333.792 385.622 333.027 386.112 332.28C386.602 331.534 387.136 330.81 387.709 330.108C388.287 329.403 388.905 328.724 389.562 328.069C390.218 327.413 390.914 326.789 391.642 326.188C392.377 325.592 393.145 325.023 393.946 324.486C394.747 323.948 395.576 323.443 396.438 322.974C397.295 322.5 398.185 322.068 399.098 321.667C400.01 321.267 400.945 320.902 401.902 320.579C402.853 320.251 403.827 319.969 404.817 319.719C405.808 319.473 406.815 319.263 407.827 319.099C408.845 318.931 409.864 318.803 410.898 318.722C411.928 318.635 412.957 318.59 413.997 318.59V318.571Z" fill="#CDBA9C"/>
</g>
</g>
<path fill-rule="evenodd" clip-rule="evenodd" d="M40.0772 383.86C40.6057 383.864 41.1343 383.905 41.6573 383.992C42.1803 384.078 42.6866 384.206 43.1762 384.37C43.6658 384.538 44.1331 384.743 44.5782 384.984C45.0178 385.226 45.4295 385.503 45.8022 385.809C46.1806 386.118 46.5144 386.455 46.8148 386.815C47.1097 387.174 47.3601 387.557 47.5604 387.962C47.7662 388.363 47.922 388.777 48.0277 389.205C48.1334 389.628 48.1835 390.061 48.1835 390.498V437.662L32.0098 440.74V398.284C32.0098 393.257 34.647 383.86 40.1217 383.86H40.0772Z" fill="#917F63"/>
<path fill-rule="evenodd" clip-rule="evenodd" d="M322.886 183.016C324.243 183.047 325.601 183.157 326.942 183.348C328.283 183.539 329.601 183.808 330.898 184.154C332.194 184.5 333.451 184.923 334.675 185.415C335.894 185.911 337.068 186.476 338.192 187.109C339.31 187.742 340.373 188.438 341.369 189.194C342.37 189.954 343.299 190.769 344.156 191.634C345.007 192.504 345.786 193.419 346.482 194.375C347.177 195.336 347.784 196.333 348.301 197.362C345.775 196.702 343.188 196.374 340.54 196.379C324.917 196.379 312.137 208.025 312.137 222.258V259.574C306.223 260.329 300.353 261.14 294.505 261.973V208.895C294.505 194.658 307.285 183.016 322.908 183.016H322.886Z" fill="#917F63"/>
<path fill-rule="evenodd" clip-rule="evenodd" d="M246.102 199.911C252.406 199.911 257.19 202.939 260.379 207.719C249.913 212.127 240.321 225.094 240.321 236.699V270.969C233.083 272.358 225.928 273.815 218.856 275.335V230.516C218.856 216.284 233.322 199.97 246.102 199.97V199.911Z" fill="#917F63"/>
<path fill-rule="evenodd" clip-rule="evenodd" d="M182.53 217.286C187.565 217.286 191.31 220.573 193.786 225.754C190.514 230.334 187.977 235.17 186.163 240.26C184.355 245.355 183.326 250.55 183.087 255.849V283.804C175.815 285.721 168.643 287.72 161.572 289.801V254.41C161.572 239.877 172.71 217.322 182.53 217.322V217.286Z" fill="#917F63"/>
<path fill-rule="evenodd" clip-rule="evenodd" d="M132.229 233.184C140.474 233.184 144.636 245.81 144.636 260.365V295.109C134.36 298.474 124.345 302.048 114.597 305.827V270.214C114.597 255.658 123.839 233.107 132.201 233.107L132.229 233.184Z" fill="#917F63"/>
<path fill-rule="evenodd" clip-rule="evenodd" d="M87.2623 259.76C95.5077 259.76 99.6694 272.39 99.6694 286.927V311.955C89.3153 316.403 79.3006 321.147 69.6309 326.187V296.848C69.6309 282.311 78.8722 259.76 87.2122 259.76H87.2623Z" fill="#917F63"/>
<path fill-rule="evenodd" clip-rule="evenodd" d="M52.4835 290.839C56.9456 290.839 59.2101 299.271 59.2101 313.804V331.879C53.663 335.016 48.2718 338.267 43.0308 341.632V323.729C43.0308 309.192 48.0938 290.839 52.5503 290.839H52.4835Z" fill="#917F63"/>
<path fill-rule="evenodd" clip-rule="evenodd" d="M188.1 105.433L206.148 99.519V128.098L188.1 134.017V105.433Z" fill="#917F63"/>
<path fill-rule="evenodd" clip-rule="evenodd" d="M105.306 155.493L113.345 149.574V172.257L105.306 178.175V155.493Z" fill="#917F63"/>
<path d="M17.7053 387.416C17.1712 387.748 16.5981 388.035 15.9917 388.276C15.3852 388.522 14.7565 388.718 14.1111 388.864C13.4602 389.009 12.7981 389.109 12.1249 389.155C11.4573 389.2 10.784 389.196 10.1108 389.141C9.44318 389.082 8.7811 388.977 8.13571 388.818C7.49032 388.663 6.86718 388.458 6.2663 388.203C5.67098 387.953 5.10348 387.657 4.56936 387.32C4.04081 386.979 3.5512 386.601 3.1061 386.191C2.65544 385.777 2.26042 385.33 1.92103 384.857C1.57608 384.383 1.28676 383.887 1.05309 383.368C0.824977 382.849 0.652501 382.316 0.54679 381.775C0.435516 381.228 0.391006 380.682 0.407697 380.131C0.418825 379.58 0.502279 379.034 0.641374 378.492C0.780466 377.955 0.980762 377.431 1.24226 376.921C1.50375 376.411 1.82088 375.929 2.18809 375.469C2.56086 375.009 2.9837 374.581 3.45105 374.185C68.7302 327.303 153.51 298.251 238.752 280.385C321.496 263.033 404.662 256.227 470.654 253.918V271.652C405.953 273.997 324.661 280.685 244.088 297.586C161.783 314.828 80.0301 342.747 17.6385 387.566L17.7053 387.416Z" fill="#C9A16E"/>
<path d="M13.8714 482.176C13.1982 482.336 12.5138 482.445 11.8183 482.495C11.1229 482.545 10.4274 482.545 9.73195 482.486C9.03649 482.427 8.35215 482.313 7.6845 482.149C7.01129 481.981 6.37146 481.762 5.74833 481.493C5.13075 481.225 4.55212 480.911 4.00688 480.551C3.4672 480.191 2.97203 479.791 2.52137 479.349C2.0707 478.912 1.68124 478.443 1.34186 477.942C1.00803 477.437 0.729847 476.913 0.518425 476.371C0.301439 475.825 0.156783 475.27 0.0733268 474.7C-0.0101294 474.131 -0.0212558 473.562 0.0343807 472.993C0.0844539 472.419 0.206857 471.859 0.390459 471.308C0.579626 470.758 0.82443 470.225 1.136 469.71C1.44757 469.2 1.82033 468.718 2.24318 468.263C2.67159 467.807 3.15007 467.393 3.67306 467.015C4.19605 466.637 4.76355 466.3 5.36443 466.013C5.97087 465.727 6.59957 465.485 7.26166 465.299C90.2168 443.294 185 430.874 283.094 423.976C379.725 417.169 479.505 415.694 574.428 415.658V433.428C479.967 433.428 380.677 434.921 284.875 441.669C188.166 448.471 94.9793 460.664 13.8714 482.176Z" fill="#C9A16E"/>
<path d="M61.7255 175.699C61.6421 176.04 61.5141 176.377 61.3472 176.7C61.1803 177.023 60.98 177.329 60.7407 177.62C60.5015 177.911 60.2344 178.184 59.934 178.43C59.628 178.681 59.2997 178.904 58.9437 179.1C58.5932 179.295 58.2148 179.464 57.8254 179.6C57.4303 179.742 57.0242 179.846 56.6013 179.919C56.1841 179.992 55.7612 180.033 55.3328 180.038C54.9044 180.047 54.476 180.019 54.0532 179.956C53.6303 179.896 53.2186 179.801 52.818 179.678C52.423 179.55 52.0391 179.396 51.6774 179.209C51.3102 179.022 50.9764 178.808 50.6593 178.567C50.3477 178.33 50.064 178.066 49.8136 177.784C49.5632 177.497 49.3462 177.196 49.1682 176.878C48.9902 176.559 48.8511 176.231 48.7454 175.89C48.6452 175.548 48.584 175.202 48.5618 174.852C48.5451 174.506 48.5618 174.155 48.623 173.809C56.7349 137.572 91.0018 101.977 133.431 72.4694C187.082 35.1352 254.141 7.23009 297.21 0.104718C297.639 0.0364234 298.072 0 298.512 0C298.946 0 299.38 0.0318707 299.808 0.104718C300.237 0.173011 300.654 0.277731 301.06 0.414319C301.461 0.546356 301.845 0.714814 302.212 0.915144C302.574 1.11092 302.913 1.33857 303.219 1.58898C303.53 1.84395 303.803 2.11713 304.048 2.41762C304.293 2.71356 304.499 3.02772 304.665 3.35553C304.832 3.68789 304.96 4.02481 305.044 4.37539C305.133 4.73052 305.172 5.0811 305.177 5.44078C305.177 5.79591 305.133 6.15104 305.049 6.50162C304.966 6.8522 304.838 7.19367 304.671 7.52604C304.504 7.85385 304.298 8.168 304.059 8.4685C303.814 8.76444 303.536 9.03762 303.23 9.29258C302.918 9.54755 302.585 9.77064 302.223 9.97097C301.861 10.1713 301.477 10.3398 301.071 10.4764C300.665 10.6129 300.253 10.7177 299.825 10.786C258.598 17.6108 194.036 44.5871 142.049 80.7285C101.723 108.725 69.2143 142.161 61.7255 175.699Z" fill="#C9A16E"/>
<path d="M44.2106 287.438C43.8156 287.916 43.3594 288.362 42.8586 288.772C42.3523 289.177 41.8015 289.542 41.2062 289.86C40.6164 290.183 39.9877 290.452 39.3312 290.671C38.6747 290.889 37.9959 291.053 37.3005 291.162C36.605 291.272 35.8984 291.326 35.1863 291.322C34.4797 291.317 33.7731 291.258 33.0776 291.14C32.3821 291.026 31.7089 290.853 31.0524 290.625C30.4015 290.402 29.7783 290.124 29.1941 289.801C28.6044 289.473 28.0591 289.104 27.564 288.69C27.0632 288.276 26.6181 287.83 26.2287 287.342C25.8336 286.86 25.5054 286.345 25.2383 285.808C24.9713 285.271 24.771 284.715 24.6374 284.146C24.5039 283.573 24.4371 282.999 24.4427 282.416C24.4483 281.838 24.5206 281.264 24.6653 280.695C24.8043 280.126 25.0158 279.571 25.294 279.038C25.5666 278.501 25.906 277.995 26.301 277.513C59.8781 237.078 110.458 206.059 167.258 183.184C236.026 155.452 313.99 139.708 381.3 133.694H382.429V151.482C317.59 157.324 242.769 172.562 176.777 199.138C123.121 220.783 75.4732 249.894 44.2329 287.493L44.2106 287.438Z" fill="#C9A16E"/>
</svg>
