<svg width="1536" height="545" viewBox="0 0 1536 545" fill="none" xmlns="http://www.w3.org/2000/svg">
<g opacity="0.71">
<mask id="mask0_92_717" style="mask-type:luminance" maskUnits="userSpaceOnUse" x="625" y="0" width="714" height="550">
<path d="M625.045 0H1338.31V549.743H625.045V0Z" fill="white"/>
</mask>
<g mask="url(#mask0_92_717)">
<path fill-rule="evenodd" clip-rule="evenodd" d="M625.761 548.593L967.821 0L1337.56 548.593H625.761Z" fill="#C9A16E"/>
</g>
<mask id="mask1_92_717" style="mask-type:luminance" maskUnits="userSpaceOnUse" x="358" y="0" width="611" height="550">
<path d="M358.17 0H968.513V549.743H358.17V0Z" fill="white"/>
</mask>
<g mask="url(#mask1_92_717)">
<path fill-rule="evenodd" clip-rule="evenodd" d="M358.315 548.593L967.821 0L625.761 548.593H358.315Z" fill="#FFDFB1"/>
</g>
<path fill-rule="evenodd" clip-rule="evenodd" d="M120.484 548.593L348.788 182.458L595.594 548.593H120.484Z" fill="#C9A16E"/>
<path fill-rule="evenodd" clip-rule="evenodd" d="M-58 548.593L348.788 182.458L120.484 548.593H-58Z" fill="#FFDFB1"/>
<path fill-rule="evenodd" clip-rule="evenodd" d="M1165.56 548.594L1363.73 230.711L1578 548.594H1165.56Z" fill="#C9A16E"/>
<path fill-rule="evenodd" clip-rule="evenodd" d="M1010.6 548.594L1363.73 230.711L1165.56 548.594H1010.6Z" fill="#FFDFB1"/>
<path fill-rule="evenodd" clip-rule="evenodd" d="M1450.36 491.084C1452.12 490.925 1453.87 490.925 1455.62 491.084H1456.14C1454.19 491.168 1452.27 491.402 1450.36 491.8V491.047V491.084ZM1446.41 460.474C1446.6 460.474 1446.78 460.506 1446.96 460.581C1447.13 460.651 1447.28 460.754 1447.42 460.89C1447.55 461.021 1447.65 461.175 1447.73 461.352C1447.8 461.525 1447.83 461.708 1447.83 461.895L1448.86 488.2C1450.75 486.152 1452.79 484.292 1455.02 482.618C1457.23 480.94 1459.58 479.477 1462.06 478.224C1464.54 476.971 1467.12 475.952 1469.78 475.162C1472.45 474.372 1475.16 473.825 1477.93 473.526C1497.7 472.02 1497.18 482.226 1497.18 482.226C1497.18 482.226 1489.67 478.822 1485.32 480.645C1480.97 482.464 1481.05 485.708 1475.55 487.05C1470.05 488.396 1466.5 484.956 1464 487.447C1463.31 488.368 1462.48 489.14 1461.5 489.757C1460.53 490.378 1459.48 490.808 1458.35 491.047C1461.33 490.991 1464.25 491.407 1467.09 492.29C1469.94 493.179 1472.57 494.488 1475 496.227C1486.86 505.244 1481.05 512.051 1481.05 512.051C1481.05 512.051 1478.67 505.838 1475.2 504.889C1471.72 503.94 1470.02 506.273 1466.18 504.454C1462.35 502.636 1462.23 498.363 1459.46 498.84C1456.69 499.312 1455.07 499.747 1452.86 497.297C1452.17 496.526 1451.42 495.825 1450.6 495.198V548.514H1442.34V495.357C1441.57 495.969 1440.86 496.643 1440.21 497.377C1438.03 499.826 1436.25 499.433 1433.6 498.919C1430.95 498.405 1430.72 502.874 1426.88 504.534C1423.04 506.193 1421.38 504.019 1417.9 504.968C1414.42 505.917 1412.01 512.126 1412.01 512.126C1412.01 512.126 1406.08 505.244 1418.06 496.306C1420.48 494.553 1423.11 493.235 1425.96 492.346C1428.81 491.463 1431.73 491.052 1434.71 491.126C1433.58 490.888 1432.53 490.458 1431.56 489.836C1430.58 489.219 1429.75 488.448 1429.05 487.527C1426.56 485.035 1423 488.476 1417.51 487.129C1412.01 485.788 1412.17 482.581 1407.74 480.725C1403.31 478.864 1395.88 482.305 1395.88 482.305C1395.88 482.305 1395.25 472.1 1415.13 473.605C1417.88 473.9 1420.59 474.442 1423.24 475.227C1425.89 476.008 1428.45 477.022 1430.92 478.266C1433.39 479.505 1435.73 480.959 1437.94 482.623C1440.15 484.282 1442.2 486.129 1444.08 488.158L1445.1 461.974C1445.11 461.783 1445.15 461.6 1445.23 461.427C1445.31 461.254 1445.41 461.1 1445.55 460.964C1445.68 460.834 1445.84 460.731 1446.02 460.661C1446.19 460.586 1446.38 460.553 1446.57 460.553L1446.41 460.474ZM1442.46 491.8C1440.59 491.44 1438.7 491.215 1436.8 491.126H1437.32C1439.03 490.986 1440.74 490.986 1442.46 491.126V491.8Z" fill="#917F63"/>
</g>
</svg>
