<svg width="106" height="106" viewBox="0 0 106 106" fill="none" xmlns="http://www.w3.org/2000/svg">
<mask id="path-1-outside-1_142_785" maskUnits="userSpaceOnUse" x="5.00317" y="2.97705" width="95" height="96" fill="black">
<rect fill="white" x="5.00317" y="2.97705" width="95" height="96"/>
<path fill-rule="evenodd" clip-rule="evenodd" d="M55.9616 7.20679C54.4944 4.23381 50.255 4.2338 48.7877 7.20679L37.866 29.3367C37.2833 30.5173 36.157 31.3356 34.8542 31.5249L10.4324 35.0736C7.3678 35.5189 6.02276 39.066 7.79344 41.4177C6.68582 42.9255 6.66849 45.1628 8.2155 46.6708L25.8873 63.8965C26.1992 64.2005 26.4549 64.5488 26.6495 64.9258L22.866 86.9858C22.7067 87.9145 22.8697 88.7806 23.2521 89.5091L22.866 91.7602C22.3055 95.0279 25.7352 97.5197 28.6698 95.977L50.5133 84.4931C51.6786 83.8805 53.0708 83.8805 54.2361 84.4931L76.0796 95.977C79.0141 97.5197 82.4439 95.0279 81.8834 91.7602L81.4973 89.5091C81.8797 88.7806 82.0427 87.9145 81.8834 86.9858L78.0998 64.9258C78.2944 64.5488 78.5502 64.2005 78.8621 63.8965L96.5339 46.6708C98.0809 45.1628 98.0636 42.9255 96.9559 41.4177C98.7266 39.066 97.3816 35.5189 94.317 35.0736L69.8952 31.5249C68.5923 31.3356 67.4661 30.5173 66.8834 29.3367L55.9616 7.20679Z"/>
</mask>
<path fill-rule="evenodd" clip-rule="evenodd" d="M55.9616 7.20679C54.4944 4.23381 50.255 4.2338 48.7877 7.20679L37.866 29.3367C37.2833 30.5173 36.157 31.3356 34.8542 31.5249L10.4324 35.0736C7.3678 35.5189 6.02276 39.066 7.79344 41.4177C6.68582 42.9255 6.66849 45.1628 8.2155 46.6708L25.8873 63.8965C26.1992 64.2005 26.4549 64.5488 26.6495 64.9258L22.866 86.9858C22.7067 87.9145 22.8697 88.7806 23.2521 89.5091L22.866 91.7602C22.3055 95.0279 25.7352 97.5197 28.6698 95.977L50.5133 84.4931C51.6786 83.8805 53.0708 83.8805 54.2361 84.4931L76.0796 95.977C79.0141 97.5197 82.4439 95.0279 81.8834 91.7602L81.4973 89.5091C81.8797 88.7806 82.0427 87.9145 81.8834 86.9858L78.0998 64.9258C78.2944 64.5488 78.5502 64.2005 78.8621 63.8965L96.5339 46.6708C98.0809 45.1628 98.0636 42.9255 96.9559 41.4177C98.7266 39.066 97.3816 35.5189 94.317 35.0736L69.8952 31.5249C68.5923 31.3356 67.4661 30.5173 66.8834 29.3367L55.9616 7.20679Z" fill="url(#paint0_linear_142_785)"/>
<path d="M48.7877 7.20679L50.5812 8.09192V8.09192L48.7877 7.20679ZM55.9616 7.20679L54.1682 8.09192L55.9616 7.20679ZM37.866 29.3367L36.0725 28.4516L37.866 29.3367ZM34.8542 31.5249L35.1418 33.5041L34.8542 31.5249ZM10.4324 35.0736L10.7199 37.0528H10.7199L10.4324 35.0736ZM7.79344 41.4177L9.40527 42.6018L10.2859 41.403L9.3912 40.2147L7.79344 41.4177ZM8.2155 46.6708L9.61152 45.2386H9.61152L8.2155 46.6708ZM25.8873 63.8965L24.4913 65.3287L24.4913 65.3287L25.8873 63.8965ZM26.6495 64.9258L28.6208 65.2639L28.734 64.6037L28.4267 64.0085L26.6495 64.9258ZM22.866 86.9858L24.8372 87.3239V87.3239L22.866 86.9858ZM23.2521 89.5091L25.2233 89.8472L25.3378 89.1795L25.023 88.5797L23.2521 89.5091ZM22.866 91.7602L24.8372 92.0983V92.0983L22.866 91.7602ZM28.6698 95.977L29.6004 97.7472H29.6004L28.6698 95.977ZM50.5133 84.4931L51.444 86.2634H51.444L50.5133 84.4931ZM54.2361 84.4931L55.1667 82.7228V82.7228L54.2361 84.4931ZM76.0796 95.977L75.1489 97.7472L76.0796 95.977ZM81.8834 91.7602L83.8546 91.4222L81.8834 91.7602ZM81.4973 89.5091L79.7264 88.5797L79.4116 89.1795L79.5261 89.8472L81.4973 89.5091ZM81.8834 86.9858L83.8546 86.6478V86.6478L81.8834 86.9858ZM78.0998 64.9258L76.3226 64.0084L76.0154 64.6037L76.1286 65.2639L78.0998 64.9258ZM78.8621 63.8965L77.466 62.4644L77.466 62.4644L78.8621 63.8965ZM96.5339 46.6708L97.9299 48.103L96.5339 46.6708ZM96.9559 41.4177L95.3582 40.2147L94.4635 41.403L95.3441 42.6018L96.9559 41.4177ZM94.317 35.0736L94.0294 37.0528L94.317 35.0736ZM69.8952 31.5249L69.6076 33.5041L69.8952 31.5249ZM66.8834 29.3367L65.0899 30.2219L65.0899 30.2219L66.8834 29.3367ZM50.5812 8.09192C51.3148 6.60543 53.4345 6.60543 54.1682 8.09192L57.7551 6.32166C55.5542 1.86218 49.1952 1.86218 46.9943 6.32166L50.5812 8.09192ZM39.6594 30.2219L50.5812 8.09192L46.9943 6.32166L36.0725 28.4516L39.6594 30.2219ZM35.1418 33.5041C37.0961 33.2201 38.7855 31.9927 39.6594 30.2219L36.0725 28.4516C35.7812 29.0419 35.218 29.451 34.5666 29.5457L35.1418 33.5041ZM10.7199 37.0528L35.1418 33.5041L34.5666 29.5457L10.1448 33.0944L10.7199 37.0528ZM9.3912 40.2147C8.5104 39.0449 9.19884 37.2739 10.7199 37.0528L10.1448 33.0944C5.53677 33.764 3.53512 39.0871 6.19569 42.6207L9.3912 40.2147ZM9.61152 45.2386C8.84929 44.4956 8.82797 43.3876 9.40527 42.6018L6.18162 40.2337C4.54367 42.4633 4.48769 45.83 6.81948 48.103L9.61152 45.2386ZM27.2833 62.4644L9.61152 45.2386L6.81947 48.103L24.4913 65.3287L27.2833 62.4644ZM28.4267 64.0085C28.1347 63.4428 27.7509 62.9201 27.2833 62.4644L24.4913 65.3287C24.6474 65.4809 24.7751 65.6549 24.8723 65.8432L28.4267 64.0085ZM24.8372 87.3239L28.6208 65.2639L24.6783 64.5877L20.8947 86.6478L24.8372 87.3239ZM25.023 88.5797C24.8397 88.2304 24.754 87.8088 24.8372 87.3239L20.8947 86.6478C20.6593 88.0202 20.8997 89.3307 21.4811 90.4385L25.023 88.5797ZM24.8372 92.0983L25.2233 89.8472L21.2808 89.171L20.8947 91.4222L24.8372 92.0983ZM27.7391 94.2067C26.2718 94.9781 24.557 93.7322 24.8372 92.0983L20.8947 91.4222C20.0541 96.3236 25.1987 100.061 29.6004 97.7472L27.7391 94.2067ZM49.5826 82.7228L27.7391 94.2067L29.6004 97.7472L51.444 86.2634L49.5826 82.7228ZM55.1667 82.7228C53.4188 81.8039 51.3306 81.8039 49.5826 82.7228L51.444 86.2634C52.0266 85.9571 52.7227 85.9571 53.3054 86.2634L55.1667 82.7228ZM77.0103 94.2067L55.1667 82.7228L53.3054 86.2634L75.1489 97.7472L77.0103 94.2067ZM79.9122 92.0983C80.1924 93.7322 78.4776 94.9781 77.0103 94.2067L75.1489 97.7472C79.5507 100.061 84.6953 96.3236 83.8546 91.4222L79.9122 92.0983ZM79.5261 89.8472L79.9122 92.0983L83.8546 91.4222L83.4685 89.171L79.5261 89.8472ZM79.9122 87.3239C79.9954 87.8088 79.9097 88.2304 79.7264 88.5797L83.2682 90.4385C83.8496 89.3307 84.09 88.0202 83.8546 86.6478L79.9122 87.3239ZM76.1286 65.2639L79.9122 87.3239L83.8546 86.6478L80.0711 64.5877L76.1286 65.2639ZM77.466 62.4644C76.9985 62.9201 76.6146 63.4428 76.3226 64.0084L79.877 65.8432C79.9742 65.6549 80.1019 65.4809 80.2581 65.3287L77.466 62.4644ZM95.1379 45.2386L77.466 62.4644L80.2581 65.3287L97.9299 48.103L95.1379 45.2386ZM95.3441 42.6018C95.9214 43.3876 95.9001 44.4956 95.1379 45.2386L97.9299 48.103C100.262 45.83 100.206 42.4633 98.5678 40.2337L95.3441 42.6018ZM94.0294 37.0528C95.5505 37.2739 96.239 39.0449 95.3582 40.2147L98.5537 42.6207C101.214 39.0871 99.2126 33.764 94.6046 33.0944L94.0294 37.0528ZM69.6076 33.5041L94.0294 37.0528L94.6046 33.0944L70.1828 29.5457L69.6076 33.5041ZM65.0899 30.2219C65.9639 31.9927 67.6533 33.2201 69.6076 33.5041L70.1828 29.5457C69.5313 29.451 68.9682 29.0419 68.6769 28.4516L65.0899 30.2219ZM54.1682 8.09192L65.0899 30.2219L68.6769 28.4516L57.7551 6.32166L54.1682 8.09192Z" fill="white" mask="url(#path-1-outside-1_142_785)"/>
<g filter="url(#filter0_d_142_785)">
<path d="M49.1167 7.26794C50.5839 4.29496 54.8233 4.29496 56.2906 7.26794L67.2123 29.3979C67.795 30.5785 68.9213 31.3967 70.2241 31.5861L94.646 35.1348C97.9268 35.6115 99.2369 39.6434 96.8628 41.9575L79.191 59.1833C78.2483 60.1022 77.8181 61.4263 78.0406 62.7238L82.2124 87.047C82.7728 90.3146 79.3431 92.8065 76.4086 91.2637L54.565 79.7799C53.3997 79.1672 52.0076 79.1672 50.8423 79.7799L28.9987 91.2637C26.0642 92.8065 22.6345 90.3146 23.1949 87.047L27.3666 62.7238C27.5892 61.4263 27.159 60.1023 26.2163 59.1833L8.54444 41.9575C6.17037 39.6434 7.48041 35.6115 10.7613 35.1348L35.1831 31.5861C36.486 31.3967 37.6122 30.5785 38.1949 29.3979L49.1167 7.26794Z" fill="url(#paint1_linear_142_785)"/>
</g>
<defs>
<filter id="filter0_d_142_785" x="7.33203" y="5.03809" width="90.7432" height="89.6938" filterUnits="userSpaceOnUse" color-interpolation-filters="sRGB">
<feFlood flood-opacity="0" result="BackgroundImageFix"/>
<feColorMatrix in="SourceAlpha" type="matrix" values="0 0 0 0 0 0 0 0 0 0 0 0 0 0 0 0 0 0 127 0" result="hardAlpha"/>
<feOffset dy="3"/>
<feComposite in2="hardAlpha" operator="out"/>
<feColorMatrix type="matrix" values="0 0 0 0 1 0 0 0 0 0.392 0 0 0 0 0.2 0 0 0 1 0"/>
<feBlend mode="normal" in2="BackgroundImageFix" result="effect1_dropShadow_142_785"/>
<feBlend mode="normal" in="SourceGraphic" in2="effect1_dropShadow_142_785" result="shape"/>
</filter>
<linearGradient id="paint0_linear_142_785" x1="52.3745" y1="-3.50103" x2="52.3745" y2="107.561" gradientUnits="userSpaceOnUse">
<stop offset="0.25" stop-color="#FFEE37"/>
<stop offset="1" stop-color="#F78A3B"/>
</linearGradient>
<linearGradient id="paint1_linear_142_785" x1="52.7036" y1="0" x2="52.7036" y2="105.068" gradientUnits="userSpaceOnUse">
<stop offset="0.25" stop-color="#FFEE37"/>
<stop offset="1" stop-color="#F78A3B"/>
</linearGradient>
</defs>
</svg>
